<?xml version="1.0" encoding="UTF-8"?>
<svg width="187px" height="166px" viewBox="0 0 187 166" version="1.1" xmlns="http://www.w3.org/2000/svg" xmlns:xlink="http://www.w3.org/1999/xlink">
    <title>Logo</title>
    <g id="🖥--Web" stroke="none" stroke-width="1" fill="none" fill-rule="evenodd">
        <g id="#1-Splash---" transform="translate(-627.000000, -271.000000)" fill="#FFFFFF">
            <g id="Logo" transform="translate(627.000000, 271.000000)">
                <g id="Logo---Type" transform="translate(0.021816, 89.074218)">
                    <path d="M4.82513108,61.2000024 L4.82513108,24.7911646 L0,24.7911646 L0,17.4354705 L4.82513108,17.4354705 L4.82513108,15.1067834 C4.82513108,13.3078945 4.900523,11.7924148 5.0513091,10.5602991 C5.2020952,9.32818338 5.49738022,8.12072808 5.93717301,6.93789698 C6.3769658,5.75506588 6.99894914,4.81251148 7.80314167,4.11020551 C8.60733421,3.40789955 9.67538639,2.8472953 11.0073303,2.42837595 C12.3392742,2.0094566 13.9476351,1.80000007 15.8324614,1.80000007 C17.2649293,1.80000007 19.1874233,1.93553077 21.6000009,2.20659623 L21.6000009,9.89495995 C21.4240837,9.87031763 20.9842975,9.80255228 20.2806291,9.69166187 C19.5769606,9.58077145 19.0617825,9.52532707 18.7350793,9.52532707 C17.4785284,9.52532707 16.5989561,9.91343771 16.0963357,10.6896706 C15.5937154,11.4659035 15.342409,12.5932725 15.342409,14.0718114 L15.342409,17.4354705 L21.6000009,17.4354705 L21.6000009,24.7911646 L15.342409,24.7911646 L15.342409,61.2000024 L4.82513108,61.2000024 Z M25.200001,10.8000001 L25.200001,1.80000007 L36.0000014,1.80000007 L36.0000014,10.8000001 L25.200001,10.8000001 Z M25.200001,61.2000006 L25.200001,16.2000006 L36.0000014,16.2000006 L36.0000014,61.2000006 L25.200001,61.2000006 Z M57.8074599,62.9914765 C55.8305008,62.9658986 54.1525514,62.6206028 52.7735614,61.9555786 C51.3945714,61.2905545 50.3328871,60.3377937 49.5884765,59.0972679 C48.844066,57.8567421 48.3071222,56.4691644 47.977629,54.9344932 C47.6481358,53.3998221 47.4833917,51.6093993 47.4833917,49.5631711 L47.4833917,24.0493909 L43.2000017,24.0493909 L43.2000017,16.9515723 L47.4833917,16.9515723 L47.4833917,3.60000014 L57.7708498,3.60000014 L57.7708498,16.9515723 L64.3606805,16.9515723 L64.3606805,24.0493909 L57.7708498,24.0493909 L57.7708498,50.2537697 C57.7708498,51.7372851 58.0820331,52.8051444 58.7044091,53.4573796 C59.3267851,54.1096149 60.3213515,54.4485163 61.688138,54.4740942 C62.6400072,54.4996721 63.6772851,54.4229396 64.8000026,54.2438947 L64.8000026,62.4543442 C61.8955812,62.8635899 59.5647569,63.0426322 57.8074599,62.9914765 Z M82.7838598,43.200001 C84.2905938,43.200001 85.2699563,42.5472886 85.7219765,41.2418426 C86.1739967,39.9363967 86.4000034,37.6267963 86.4000034,34.3129721 C86.4000034,30.8987289 86.1847589,28.5263676 85.7542635,27.195817 C85.3237681,25.8652663 84.3551678,25.200001 82.8484338,25.200001 C81.320175,25.200001 80.3300503,25.8715424 79.8780301,27.2146454 C79.4260099,28.5577484 79.2000031,30.9238337 79.2000031,34.3129721 C79.2000031,35.5179991 79.2215276,36.5410014 79.2645771,37.3820099 C79.3076267,38.2230183 79.4044867,39.0326336 79.5551601,39.8108802 C79.7058335,40.5891268 79.9103158,41.2104596 80.1686131,41.6748971 C80.4269103,42.1393345 80.7713015,42.5096237 81.2017969,42.7857758 C81.6322924,43.0619278 82.1596414,43.200001 82.7838598,43.200001 Z M83.7853737,68.4000024 C85.9282821,68.4000024 87.4918342,68.1000057 88.476077,67.5000027 C89.4603198,66.9000024 89.9648924,65.9318275 89.9898099,64.5954571 C90.0645625,63.1499953 89.7281808,62.0931876 88.9806546,61.4250024 C88.2331285,60.7568173 86.8751429,60.3272761 84.9066573,60.136366 L77.8799464,59.4000024 C76.3599765,61.3363758 75.600003,63.1227216 75.600003,64.7590935 C75.600003,65.6318252 75.793111,66.3136365 76.1793329,66.8045481 C76.5655547,67.2954597 77.362904,67.6840922 78.5714047,67.9704572 C79.7799053,68.2568223 81.5178776,68.4000024 83.7853737,68.4000024 Z M85.7020442,75.600003 C84.4040785,75.600003 83.2714367,75.5875346 82.3040849,75.5625975 C81.3367331,75.5376603 80.2163361,75.4690842 78.9428603,75.356867 C77.6693845,75.2446498 76.573477,75.0825607 75.655105,74.8705949 C74.7367331,74.6586291 73.7938853,74.365622 72.8265335,73.9915647 C71.8591817,73.6175074 71.075516,73.1748795 70.475513,72.6636679 C69.87551,72.1524562 69.3795966,71.5041 68.9877578,70.7185796 C68.5959191,69.9330593 68.4000027,69.0540378 68.4000027,68.0814889 C68.4000027,64.365853 70.4448803,61.2362872 74.5346968,58.6926975 C71.5959065,57.6702743 70.04082,56.0119784 69.8693905,53.7177603 C69.7469409,52.1217825 70.0775499,50.7440254 70.8612273,49.5844478 C71.6449047,48.4248702 72.9795853,47.0595815 74.8653091,45.4885409 C73.2489744,44.2416832 72.0367416,42.6831345 71.2285743,40.812848 C70.4204069,38.9425615 70.0163293,36.4364151 70.0163293,33.2943338 C70.0163293,27.8580344 71.1734606,23.8182761 73.487758,21.1749379 C75.8020554,18.5315996 79.1510016,17.2099503 83.5346972,17.2099503 C88.0408424,17.2099503 91.1510155,18.6562835 92.8653098,21.5489933 C93.404088,20.8756902 94.2183656,20.0777132 95.3081671,19.1550385 C96.3979685,18.2323639 97.542855,17.4717921 98.7428611,16.8733004 L100.175514,16.2000006 L102.600004,22.0352654 C101.742857,22.2596997 100.444911,22.7085618 98.7061264,23.3818649 C96.9673421,24.0551681 95.8040884,24.5788404 95.2163303,24.9528977 C95.6816388,25.8256981 96.0857164,27.0538345 96.4285753,28.6373437 C96.7714341,30.2208529 96.942861,31.8105726 96.942861,33.4065504 C96.942861,43.5310347 92.5959655,48.5932009 83.9020442,48.5932009 C83.1918365,48.5932009 82.2183768,48.4872196 80.9816359,48.2752538 C79.7448949,48.063288 78.9428621,47.8824964 78.5755133,47.7328734 C77.7428561,49.0046683 77.3510232,49.9772026 77.4000027,50.6505058 C77.4734728,51.6479919 78.7469295,52.2714114 81.2204114,52.5207829 C81.5142904,52.5706573 82.8122367,52.7140437 85.1142891,52.9509467 C87.4163415,53.1878496 88.7632669,53.3312361 89.1551056,53.3811104 C92.8041036,53.7801049 95.4734647,54.8586206 97.1632692,56.6166899 C98.8530736,58.3747592 99.6979631,60.8871397 99.6979631,64.1539068 C99.6979631,68.0690399 98.6204229,70.9554721 96.46531,72.81329 C94.3101971,74.671108 90.7224777,75.600003 85.7020442,75.600003 Z M118.743088,63.0000007 C113.911443,63.0000007 110.31306,61.6793768 107.94783,59.0380859 C105.582601,56.3967949 104.400004,52.6191913 104.400004,47.7051616 L104.400004,33.2948416 C104.400004,28.3808119 105.582601,24.6032083 107.94783,21.9619173 C110.31306,19.3206264 113.911443,18.0000007 118.743088,18.0000007 C123.600029,18.0000007 127.223709,19.3206264 129.614234,21.9619173 C132.00476,24.6032083 133.200005,28.3808119 133.200005,33.2948416 L133.200005,47.7051616 C133.200005,52.6191913 132.00476,56.3967949 129.614234,59.0380859 C127.223709,61.6793768 123.600029,63.0000007 118.743088,63.0000007 Z M118.800005,55.8000022 C119.600009,55.8000022 120.252943,55.6152214 120.758828,55.2456544 C121.264713,54.8760873 121.629415,54.3032669 121.852946,53.527176 C122.076477,52.7510852 122.223534,51.9996434 122.294123,51.2728281 C122.364711,50.5460129 122.400005,49.6036309 122.400005,48.4456541 L122.400005,32.5913056 C122.400005,31.6797068 122.382358,30.9221057 122.347064,30.3184795 C122.311769,29.7148532 122.229417,29.0558018 122.100005,28.3413055 C121.970592,27.6268091 121.776477,27.0663075 121.517652,26.6597837 C121.258827,26.2532599 120.905889,25.9083358 120.458828,25.625001 C120.011767,25.3416663 119.458832,25.200001 118.800005,25.200001 C118.000001,25.200001 117.347066,25.3909411 116.841181,25.7728271 C116.335296,26.1547131 115.970594,26.7336928 115.747063,27.5097837 C115.523533,28.2858746 115.376476,29.0373164 115.305887,29.7641316 C115.235298,30.4909469 115.200005,31.4333288 115.200005,32.5913056 L115.200005,48.4456541 C115.200005,49.3572529 115.217651,50.114854 115.252946,50.7184803 C115.28824,51.3221065 115.370592,51.9749986 115.500005,52.677176 C115.629417,53.3793535 115.823533,53.9336958 116.082358,54.3402196 C116.341182,54.7467433 116.69412,55.0916674 117.141181,55.3750022 C117.588242,55.658337 118.141178,55.8000022 118.800005,55.8000022 Z M152.653852,55.8000022 C153.392317,55.8000022 154.125002,55.5112833 154.851929,54.9338368 C155.578856,54.3563903 156.161542,53.7669224 156.600006,53.1654156 L156.600006,41.4000016 C151.799982,44.1669329 149.400006,47.3067512 149.400006,50.8195509 C149.400006,52.3594083 149.682695,53.5744338 150.248083,54.4646638 C150.81347,55.3548939 151.615385,55.8000022 152.653852,55.8000022 Z M148.125298,63.0000007 C145.336179,62.9754324 143.051376,61.9005045 141.270823,59.7751867 C139.490269,57.6498688 138.600006,55.2481728 138.600006,52.5700267 C138.600006,50.0393014 139.023348,47.8280212 139.870044,45.9361198 C140.716741,44.0442183 142.105054,42.4226129 144.035025,41.0712547 C145.964996,39.7198965 147.56498,38.7371053 148.835025,38.1228516 C150.105071,37.5085979 152.059915,36.6977952 154.699617,35.6904191 L156.380551,35.0270284 L156.380551,31.3783796 C156.380551,29.4127678 156.150203,27.9754356 155.6895,27.0663401 C155.228798,26.1572447 154.288729,25.7027037 152.869267,25.7027037 C150.553302,25.7027037 149.370434,27.2997394 149.320629,30.4938587 L149.171212,33.2211315 L139.160317,32.8525812 C139.160317,32.7051603 139.166542,32.4348927 139.178994,32.0417703 C139.191445,31.6486479 139.197671,31.3906653 139.197671,31.2678145 C139.521408,26.6977669 140.89727,23.343992 143.325298,21.206389 C145.753325,19.0687861 149.220995,18.0000007 153.728411,18.0000007 C158.086409,18.0000007 161.317506,19.1670653 163.421796,21.5012294 C165.526087,23.8353935 166.578217,27.1400288 166.578217,31.4152347 L166.578217,51.3538104 C166.578217,54.6953506 166.852144,58.3439629 167.400007,62.2997568 L157.949423,62.2997568 C157.376657,59.4496196 157.015571,57.3120487 156.866154,55.8869801 C156.243583,57.9017323 155.203905,59.5909046 153.747088,60.9545479 C152.290271,62.3181911 150.41636,63.0000007 148.125298,63.0000007 Z M174.600007,61.2000024 L174.600007,0 L185.400007,0 L185.400007,61.2000024 L174.600007,61.2000024 Z" id="fitgoal"></path>
                </g>
                <g id="icono-logo" transform="translate(60.005564, 0.355468)">
                    <path d="M32.4000013,0 C41.0543454,0 49.1906691,3.37023295 55.3102194,9.48965663 C61.4297696,15.6093334 64.8000026,23.7456572 64.8000026,32.4000013 C64.8000026,41.0543454 61.4297696,49.1906691 55.3102194,55.3102194 C49.1906691,61.4297696 41.0543454,64.8000026 32.4000013,64.8000026 C23.7455306,64.8000026 15.6092069,61.4297696 9.48965663,55.3102194 C3.37010638,49.1906691 0,41.0543454 0,32.4000013 C0,23.7456572 3.37010638,15.6092069 9.48965663,9.48965663 C15.6090803,3.37023295 23.7455306,0 32.4000013,0 Z M32.4000013,3.79687515 C16.6281616,3.79687515 3.79687515,16.6281616 3.79687515,32.4000013 C3.79687515,48.171841 16.6281616,61.0031274 32.4000013,61.0031274 C48.171841,61.0031274 61.0031274,48.171841 61.0031274,32.4000013 C61.0031274,16.6281616 48.171841,3.79687515 32.4000013,3.79687515 Z M45.1945846,22.0041571 C45.9358612,21.2628805 47.1379519,21.2628805 47.8792285,22.0040306 C48.6206316,22.7454337 48.6206316,23.9475244 47.8792285,24.688801 L47.8792285,24.688801 L29.7724371,42.7955923 C29.4018621,43.1661673 28.9158621,43.3515814 28.4301152,43.3515814 C27.9443683,43.3515814 27.4584948,43.1662939 27.0877933,42.7955923 L27.0877933,42.7955923 L16.9206475,32.6284466 C16.1792444,31.8870435 16.1792444,30.6849528 16.9206475,29.9436762 C17.6620507,29.2023996 18.8641414,29.2023996 19.605418,29.9436762 L19.605418,29.9436762 L28.4302418,38.7685 Z" id="Combined-Shape"></path>
                </g>
            </g>
        </g>
    </g>
</svg>