<?xml version="1.0" encoding="UTF-8"?>
<svg width="112px" height="112px" viewBox="0 0 112 112" version="1.1" xmlns="http://www.w3.org/2000/svg" xmlns:xlink="http://www.w3.org/1999/xlink">
    <title>Logo_icon</title>
    <defs>
        <filter x="-9.4%" y="-3.1%" width="118.7%" height="116.1%" filterUnits="objectBoundingBox" id="filter-1">
            <feOffset dx="0" dy="2" in="SourceAlpha" result="shadowOffsetOuter1"></feOffset>
            <feGaussianBlur stdDeviation="2" in="shadowOffsetOuter1" result="shadowBlurOuter1"></feGaussianBlur>
            <feColorMatrix values="0 0 0 0 0   0 0 0 0 0   0 0 0 0 0  0 0 0 0.5 0" type="matrix" in="shadowBlurOuter1" result="shadowMatrixOuter1"></feColorMatrix>
            <feMerge>
                <feMergeNode in="shadowMatrixOuter1"></feMergeNode>
                <feMergeNode in="SourceGraphic"></feMergeNode>
            </feMerge>
        </filter>
    </defs>
    <g id="🖥--Web" stroke="none" stroke-width="1" fill="none" fill-rule="evenodd">
        <g id="#5-Welcome" transform="translate(-958.000000, -152.000000)">
            <g id="Content" filter="url(#filter-1)" transform="translate(735.000000, 117.000000)">
                <g id="icon_logo" transform="translate(227.000000, 37.000000)">
                    <path d="M52,0 C65.8896875,0 78.9479844,5.40901563 88.7694844,15.2303125 C98.5909844,25.0520156 104,38.1103125 104,52 C104,65.8896875 98.5909844,78.9479844 88.7694844,88.7694844 C78.9479844,98.5909844 65.8896875,104 52,104 C38.1101094,104 25.0518125,98.5909844 15.2303125,88.7694844 C5.4088125,78.9479844 0,65.8896875 0,52 C0,38.1103125 5.4088125,25.0518125 15.2303125,15.2303125 C25.0516094,5.40901563 38.1101094,0 52,0 Z" id="Shape" fill="#FFFFFF" fill-rule="nonzero"></path>
                    <circle id="Oval" fill="#7630DC" cx="52" cy="52" r="45"></circle>
                    <path d="M76.8432031,35.3151094 C75.6535,34.1256094 73.7242188,34.1256094 72.5345156,35.3153125 L45.6287813,62.2210469 L31.4654844,48.05775 C30.2757813,46.8680469 28.3465,46.8680469 27.1565938,48.05775 C25.9666875,49.2474531 25.9666875,51.1767344 27.1565938,52.3666406 L43.4742344,68.6842812 C44.0691875,69.2792344 44.8489844,69.5766094 45.6285781,69.5766094 C46.4081719,69.5766094 47.1881719,69.2790313 47.7829219,68.6842812 L76.8432031,39.624 C78.0331094,38.4342969 78.0331094,36.5050156 76.8432031,35.3151094 Z" id="Path" stroke="#FFFFFF" stroke-width="3.15" fill="#FFFFFF" fill-rule="nonzero"></path>
                </g>
            </g>
        </g>
    </g>
</svg>