<?xml version="1.0" encoding="UTF-8"?>
<svg width="199px" height="90px" viewBox="0 0 199 90" version="1.1" xmlns="http://www.w3.org/2000/svg" xmlns:xlink="http://www.w3.org/1999/xlink">
    <title>Logo + Slogan</title>
    <g id="🖥--Web" stroke="none" stroke-width="1" fill="none" fill-rule="evenodd">
        <g id="#5-Welcome" transform="translate(-150.000000, -180.000000)" fill="#FFFFFF">
            <g id="Logo-+-Slogan" transform="translate(150.000000, 180.860352)">
                <path d="M13.3530678,77.2266484 L1.92142088,77.2266484 L1.92142088,88 L0,88 L0,65 L15,65 L15,66.6112637 L1.92142088,66.6112637 L1.92142088,75.5995879 L13.3530678,75.5995879 L13.3530678,77.2266484 Z M19.9296875,88 L18.0703125,88 L18.0703125,71 L19.9296875,71 L19.9296875,88 Z M19.9296875,66.3125 L18.0703125,66.3125 L18.0703125,63.6875 L19.9296875,63.6875 L19.9296875,66.3125 Z M28.7223169,67 L28.7223169,71.415942 L32.3713799,71.415942 L32.3713799,72.9782609 L28.7223169,72.9782609 L28.7223169,84.2173913 C28.7223169,85.343967 28.9190781,86.1437174 29.3126065,86.6166667 C29.7061348,87.0896159 30.2299797,87.326087 30.8841567,87.326087 C31.1805807,87.326087 31.4693342,87.3128021 31.7504259,87.2862319 C32.0315176,87.2596617 32.3560459,87.2144931 32.7240204,87.1507246 L33,88.5695652 C32.6933545,88.7077302 32.3202748,88.8140093 31.8807496,88.8884058 C31.4412244,88.9628023 31.0017058,89 30.5621806,89 C29.3969277,89 28.4897818,88.6173951 27.8407155,87.8521739 C27.1916492,87.0869527 26.867121,85.8753706 26.867121,84.2173913 L26.867121,72.9782609 L24,72.9782609 L24,71.415942 L26.867121,71.415942 L26.867121,67 L28.7223169,67 Z M37.6662636,71.3266788 L37.8391778,74.4137931 C38.384122,73.3248584 39.1203098,72.483669 40.047763,71.8901996 C40.9752162,71.2967302 42.0729481,71 43.3409915,71 C45.1854183,71 46.5896768,71.5852936 47.5538089,72.7558984 C48.5179411,73.9265031 49,75.7531636 49,78.2359347 L49,89 L47.1136638,89 L47.1136638,78.2522686 C47.1136638,76.2268501 46.7494998,74.7949225 46.0211608,73.9564428 C45.2928218,73.1179631 44.2579672,72.6987296 42.9165659,72.6987296 C41.596124,72.6987296 40.5193512,73.0607949 39.6862152,73.7849365 C38.8530793,74.509078 38.2531256,75.4700485 37.8863362,76.6678766 L37.8863362,89 L36,89 L36,71.3266788 L37.6662636,71.3266788 Z M61.4751131,89 C59.3318143,89 57.5501579,88.1985833 56.1300905,86.5957257 C54.7100231,84.9928682 54,82.9626125 54,80.5048976 L54,79.6233304 C54,77.1442441 54.7047441,75.0872744 56.1142534,73.4523598 C57.5237627,71.8174451 59.2315133,71 61.2375566,71 C63.3386229,71 64.9909442,71.6731901 66.1945701,73.0195904 C67.3981961,74.3659907 68,76.1611642 68,78.4051647 L68,80.0400712 L55.9004525,80.0400712 L55.9004525,80.5048976 C55.9004525,82.4603838 56.4125137,84.0952739 57.4366516,85.4096171 C58.4607894,86.7239603 59.8069298,87.381122 61.4751131,87.381122 C62.6576228,87.381122 63.6659083,87.2154959 64.5,86.8842386 C65.3340917,86.5529814 66.0467542,86.0774742 66.638009,85.4577026 L67.4457014,86.7720392 C66.8016559,87.4559251 65.9860532,87.9982171 64.9988688,88.3989314 C64.0116844,88.7996458 62.8371109,89 61.4751131,89 Z M61.1572327,72 C59.7630958,72 58.5943443,72.5623212 57.6509434,73.6869806 C56.7075425,74.81164 56.1572335,76.2215982 56,77.9168975 L56.0314465,78 L66,78 L66,77.501385 C66,75.9390504 65.5649939,74.6315842 64.6949686,73.5789474 C63.8249432,72.5263105 62.6457097,72 61.1572327,72 Z M82.1025478,84.2555654 C82.1025478,83.443451 81.7703641,82.7328615 81.1059868,82.1237756 C80.4416094,81.5146897 79.2430907,81.0178114 77.5103946,80.6331256 C75.4481673,80.1843254 73.9254372,79.5912771 72.9421588,78.8539626 C71.9588803,78.1166481 71.4672485,77.0748064 71.4672485,75.7284061 C71.4672485,74.4033772 72.0226596,73.2840651 73.1334985,72.3704363 C74.2443374,71.4568075 75.7139181,71 77.5422845,71 C79.4875814,71 81.0289137,71.4835214 82.1663277,72.4505788 C83.3037417,73.4176362 83.8458655,74.6277755 83.7927153,76.0810329 L83.7608254,76.1772039 L81.990933,76.1772039 C81.990933,75.2261751 81.5896551,74.3980445 80.7870872,73.6927872 C79.9845194,72.9875299 78.9029293,72.6349065 77.5422845,72.6349065 C76.1497496,72.6349065 75.1053641,72.9367735 74.4090966,73.5405165 C73.7128292,74.1442595 73.3647007,74.8521776 73.3647007,75.6642921 C73.3647007,76.4657208 73.6649947,77.1282253 74.2655918,77.6518255 C74.8661889,78.1754256 76.0647077,78.6349045 77.861184,79.030276 C79.9127813,79.4897619 81.4487987,80.1175383 82.4692823,80.9136242 C83.4897659,81.7097101 84,82.7916227 84,84.1593945 C84,85.6019663 83.4180142,86.7693633 82.2540251,87.6616207 C81.090036,88.553878 79.5513611,89 77.6379544,89 C75.543837,89 73.8988633,88.4977788 72.7029841,87.4933215 C71.5071049,86.4888641 70.9410639,85.2920817 71.0048441,83.9029386 L71.0367341,83.8067676 L72.7906815,83.8067676 C72.8650918,85.0569965 73.3726684,85.9652688 74.3134268,86.5316118 C75.2541851,87.0979547 76.3623499,87.381122 77.6379544,87.381122 C79.0198592,87.381122 80.1094217,87.0765836 80.9066746,86.4674978 C81.7039274,85.8584119 82.1025478,85.1211085 82.1025478,84.2555654 Z M98.1025478,84.2555654 C98.1025478,83.443451 97.7703641,82.7328615 97.1059868,82.1237756 C96.4416094,81.5146897 95.2430907,81.0178114 93.5103946,80.6331256 C91.4481673,80.1843254 89.9254372,79.5912771 88.9421588,78.8539626 C87.9588803,78.1166481 87.4672485,77.0748064 87.4672485,75.7284061 C87.4672485,74.4033772 88.0226596,73.2840651 89.1334985,72.3704363 C90.2443374,71.4568075 91.7139181,71 93.5422845,71 C95.4875814,71 97.0289137,71.4835214 98.1663277,72.4505788 C99.3037417,73.4176362 99.8458655,74.6277755 99.7927153,76.0810329 L99.7608254,76.1772039 L97.990933,76.1772039 C97.990933,75.2261751 97.5896551,74.3980445 96.7870872,73.6927872 C95.9845194,72.9875299 94.9029293,72.6349065 93.5422845,72.6349065 C92.1497496,72.6349065 91.1053641,72.9367735 90.4090966,73.5405165 C89.7128292,74.1442595 89.3647007,74.8521776 89.3647007,75.6642921 C89.3647007,76.4657208 89.6649947,77.1282253 90.2655918,77.6518255 C90.8661889,78.1754256 92.0647077,78.6349045 93.861184,79.030276 C95.9127813,79.4897619 97.4487987,80.1175383 98.4692823,80.9136242 C99.4897659,81.7097101 100,82.7916227 100,84.1593945 C100,85.6019663 99.4180142,86.7693633 98.2540251,87.6616207 C97.090036,88.553878 95.5513611,89 93.6379544,89 C91.543837,89 89.8988633,88.4977788 88.7029841,87.4933215 C87.5071049,86.4888641 86.9410639,85.2920817 87.0048441,83.9029386 L87.0367341,83.8067676 L88.7906815,83.8067676 C88.8650918,85.0569965 89.3726684,85.9652688 90.3134268,86.5316118 C91.2541851,87.0979547 92.3623499,87.381122 93.6379544,87.381122 C95.0198592,87.381122 96.1094217,87.0765836 96.9066746,86.4674978 C97.7039274,85.8584119 98.1025478,85.1211085 98.1025478,84.2555654 Z M128.968045,81.3738318 L129,81.4699599 C128.797618,83.8090905 127.966799,85.6488585 126.507519,86.9893191 C125.048238,88.3297797 123.093684,89 120.643797,89 C118.055438,89 115.96774,88.0627597 114.380639,86.188251 C112.793538,84.3137423 112,81.8865303 112,78.9065421 L112,75.1094793 C112,72.1401721 112.793538,69.71296 114.380639,67.8277704 C115.96774,65.9425807 118.055438,65 120.643797,65 C123.114987,65 125.074867,65.6568693 126.523496,66.9706275 C127.972125,68.2843857 128.797618,70.1321643 129,72.5140187 L128.968045,72.6101469 L127.178571,72.6101469 C126.922931,70.6768929 126.259874,69.1976019 125.18938,68.1722296 C124.118886,67.1468574 122.603707,66.6341789 120.643797,66.6341789 C118.609326,66.6341789 116.97698,67.4245582 115.746711,69.0053405 C114.516441,70.5861227 113.901316,72.6101345 113.901316,75.0774366 L113.901316,78.9065421 C113.901316,81.405887 114.516441,83.4432498 115.746711,85.0186916 C116.97698,86.5941334 118.609326,87.3818425 120.643797,87.3818425 C122.603707,87.3818425 124.121549,86.8798448 125.197368,85.8758344 C126.273188,84.8718241 126.933583,83.3711715 127.178571,81.3738318 L128.968045,81.3738318 Z M132,79.7355298 C132,77.1816435 132.684424,75.0872744 134.053292,73.4523598 C135.422159,71.8174451 137.235098,71 139.492163,71 C141.759677,71 143.577841,71.8174451 144.946708,73.4523598 C146.315576,75.0872744 147,77.1816435 147,79.7355298 L147,80.2644702 C147,82.8290422 146.318189,84.9260827 144.954545,86.5556545 C143.590902,88.1852263 141.780576,89 139.523511,89 C137.245548,89 135.422159,88.1852263 134.053292,86.5556545 C132.684424,84.9260827 132,82.8290422 132,80.2644702 L132,79.7355298 Z M134,79.7608696 C134,81.804358 134.485139,83.5217322 135.455432,84.9130435 C136.425724,86.3043548 137.779007,87 139.51532,87 C141.220993,87 142.561509,86.3043548 143.536908,84.9130435 C144.512308,83.5217322 145,81.804358 145,79.7608696 L145,79.2228261 C145,77.2119465 144.509754,75.5054418 143.529248,74.1032609 C142.548742,72.7010799 141.200566,72 139.48468,72 C137.768794,72 136.425724,72.7010799 135.455432,74.1032609 C134.485139,75.5054418 134,77.2119465 134,79.2228261 L134,79.7608696 Z M161.976879,88.6634016 C161.847398,88.0756872 161.755684,87.5681232 161.701734,87.1406946 C161.647784,86.7132659 161.620809,86.2805009 161.620809,85.8423865 C160.973407,86.7506724 160.110217,87.5040041 159.031214,88.1024043 C157.95221,88.7008044 156.73835,89 155.389595,89 C153.68477,89 152.360313,88.5512066 151.416185,87.6536064 C150.472057,86.7560062 150,85.5538811 150,84.047195 C150,82.4443375 150.698644,81.1620707 152.095954,80.2003562 C153.493263,79.2386417 155.378794,78.7577916 157.752601,78.7577916 L161.620809,78.7577916 L161.620809,76.6099733 C161.620809,75.3704301 161.218886,74.3980445 160.415029,73.6927872 C159.611171,72.9875299 158.486327,72.6349065 157.040462,72.6349065 C155.691708,72.6349065 154.572259,72.9715015 153.682081,73.6447017 C152.791903,74.3179019 152.346821,75.1406897 152.346821,76.1130899 L150.566474,76.0970614 L150.534104,76.0008905 C150.469364,74.7079187 151.065504,73.5512072 152.322543,72.5307213 C153.579582,71.5102353 155.179181,71 157.121387,71 C159.052803,71 160.606545,71.4861928 161.782659,72.4585931 C162.958773,73.4309933 163.546821,74.8254584 163.546821,76.6420303 L163.546821,85.1691897 C163.546821,85.7782755 163.581888,86.3713239 163.652023,86.9483526 C163.722158,87.5253813 163.838149,88.0970586 164,88.6634016 L161.976879,88.6634016 Z M155.806344,87 C157.242077,87 158.510846,86.6798974 159.612688,86.0396825 C160.71453,85.3994677 161.510292,84.5820156 162,83.5873016 L162,80 L157.976628,80 C156.162484,80 154.71286,80.3677212 153.627713,81.1031746 C152.542566,81.838628 152,82.7513173 152,83.8412698 C152,84.7724914 152.336669,85.5317431 153.010017,86.1190476 C153.683365,86.7063521 154.615464,87 155.806344,87 Z M175.41632,87.381122 C176.689836,87.381122 177.81351,87.0178131 178.787375,86.2911843 C179.76124,85.5645556 180.248165,84.5547705 180.248165,83.2617988 L181.949745,83.2617988 L181.981851,83.3579697 C182.03536,84.9608272 181.39326,86.3018646 180.055534,87.381122 C178.717807,88.4603794 177.171418,89 175.41632,89 C173.051219,89 171.223912,88.1905691 169.934343,86.571683 C168.644775,84.9527969 168,82.8717848 168,80.3285841 L168,79.6553874 C168,77.1335582 168.64745,75.0605602 169.94237,73.4363313 C171.237289,71.8121023 173.05657,71 175.400268,71 C177.305191,71 178.891711,71.5609917 180.159876,72.682992 C181.428041,73.8049923 182.040711,75.2795991 181.997903,77.1068566 L181.965798,77.2030276 L180.248165,77.2030276 C180.248165,75.8138844 179.779968,74.7052579 178.843559,73.8771149 C177.90715,73.0489718 176.759398,72.6349065 175.400268,72.6349065 C173.538152,72.6349065 172.160314,73.3000824 171.266713,74.6304541 C170.373111,75.9608259 169.926317,77.6357869 169.926317,79.6553874 L169.926317,80.3285841 C169.926317,82.3802418 170.370436,84.0685597 171.258686,85.3935886 C172.146937,86.7186175 173.532801,87.381122 175.41632,87.381122 Z M187.884058,73.625 C188.449278,72.58867 189.202894,71.7820542 190.144928,71.2051282 C191.086961,70.6282022 192.185984,70.3397436 193.442029,70.3397436 C195.231893,70.3397436 196.605672,70.9059772 197.563406,72.0384615 C198.52114,73.1709458 199,74.9284069 199,77.3108974 L199,88 L197.115942,88 L197.115942,77.2788462 C197.115942,75.3984949 196.752218,74.0496836 196.024758,73.2323718 C195.297299,72.41506 194.295095,72.0064103 193.018116,72.0064103 C191.73067,72.0064103 190.655198,72.3509581 189.791667,73.0400641 C188.928136,73.7291701 188.292273,74.6452934 187.884058,75.7884615 L187.884058,88 L186,88 L186,63 L187.884058,63 L187.884058,73.625 Z" id="Slogan"></path>
                <g id="Logo---Type">
                    <path d="M2.88883241,36.4285714 L2.88883241,14.756645 L0,14.756645 L0,10.3782558 L2.88883241,10.3782558 L2.88883241,8.99213263 C2.88883241,7.92136543 2.93396996,7.01929427 3.02424643,6.28589208 C3.11452289,5.55248989 3.29131165,4.83376652 3.554618,4.12970042 C3.81792436,3.42563431 4.19030919,2.86459005 4.67178366,2.4465508 C5.15325814,2.02851156 5.79270683,1.69481856 6.59014894,1.44546182 C7.38759104,1.19610507 8.35052554,1.07142857 9.47898134,1.07142857 C10.3366078,1.07142857 11.4876154,1.1521016 12.9320388,1.31345008 L12.9320388,5.88985688 C12.8267163,5.87518883 12.5634139,5.83485232 12.1421237,5.76884612 C11.7208336,5.70283992 11.4123936,5.66983732 11.2167946,5.66983732 C10.4644907,5.66983732 9.93788591,5.90085554 9.63696437,6.36289892 C9.33604282,6.8249423 9.1855843,7.49599524 9.1855843,8.37607787 L9.1855843,10.3782558 L12.9320388,10.3782558 L12.9320388,14.756645 L9.1855843,14.756645 L9.1855843,36.4285714 L2.88883241,36.4285714 Z M15.0873786,6.42857143 L15.0873786,1.07142857 L21.5533981,1.07142857 L21.5533981,6.42857143 L15.0873786,6.42857143 Z M15.0873786,36.4285714 L15.0873786,9.64285714 L21.5533981,9.64285714 L21.5533981,36.4285714 L15.0873786,36.4285714 Z M34.6096429,37.494925 C33.4260267,37.4797001 32.4214292,37.2741668 31.5958203,36.8783191 C30.7702114,36.4824714 30.1345752,35.915352 29.6888925,35.1769438 C29.2432099,34.4385356 28.9217387,33.6125965 28.7244693,32.6991018 C28.5271999,31.7856071 28.4285667,30.7198793 28.4285667,29.5018864 L28.4285667,14.3151131 L25.8640777,14.3151131 L25.8640777,10.0902212 L28.4285667,10.0902212 L28.4285667,2.14285714 L34.5877242,2.14285714 L34.5877242,10.0902212 L38.533092,10.0902212 L38.533092,14.3151131 L34.5877242,14.3151131 L34.5877242,29.9129569 C34.5877242,30.7960018 34.7740314,31.4316323 35.1466513,31.8198676 C35.5192712,32.2081028 36.1147236,32.4098299 36.9330262,32.4250548 C37.5029155,32.4402797 38.1239394,32.3946056 38.7961165,32.2880313 L38.7961165,37.1752034 C37.0572235,37.418802 35.6617463,37.5253748 34.6096429,37.494925 Z M49.5631503,25.7142857 C50.4652403,25.7142857 51.0515899,25.325766 51.3222169,24.5487149 C51.5928439,23.7716638 51.7281553,22.3969017 51.7281553,20.4243873 C51.7281553,18.3920998 51.5992873,16.9799801 51.3415473,16.1879857 C51.0838073,15.3959913 50.5039011,15 49.6018111,15 C48.6868342,15 48.0940411,15.399727 47.8234142,16.1991931 C47.5527872,16.9986591 47.4174757,18.4070431 47.4174757,20.4243873 C47.4174757,21.1416653 47.4303625,21.7505952 47.4561365,22.2511955 C47.4819105,22.7517957 47.5399012,23.2337096 47.6301101,23.6969516 C47.7203191,24.1601936 47.8427438,24.5300345 47.9973878,24.8064854 C48.1520318,25.0829362 48.3582207,25.3033465 48.6159606,25.4677227 C48.8737006,25.6320988 49.1894274,25.7142857 49.5631503,25.7142857 Z M50.1627622,40.7142857 C51.4457332,40.7142857 52.3818404,40.5357161 52.9711119,40.1785714 C53.5603835,39.8214268 53.8624739,39.2451338 53.8773921,38.4496753 C53.9221469,37.5892814 53.7207534,36.9602293 53.2732053,36.5625 C52.8256573,36.1647707 52.012624,35.9090915 50.8340809,35.7954545 L46.6271505,35.3571429 C45.7171362,36.509746 45.2621359,37.5730471 45.2621359,38.5470779 C45.2621359,39.066561 45.3777508,39.4724011 45.6089839,39.7646104 C45.840217,40.0568196 46.3175944,40.2881485 47.0411304,40.4586039 C47.7646663,40.6290593 48.8051999,40.7142857 50.1627622,40.7142857 Z M51.3102833,45 C50.5331841,45 49.8550653,44.9925783 49.2759065,44.9777348 C48.6967476,44.9628913 48.0259598,44.9220721 47.2635229,44.8552762 C46.5010859,44.7884802 45.8449601,44.6919987 45.2951258,44.5658285 C44.7452915,44.4396584 44.1808034,44.2652494 43.6016445,44.0425963 C43.0224857,43.8199431 42.5533008,43.5564742 42.1940757,43.2521815 C41.8348506,42.9478889 41.5379445,42.5619626 41.3033485,42.094391 C41.0687525,41.6268194 40.9514563,41.1035923 40.9514563,40.5246941 C40.9514563,38.3130062 42.1757357,36.4501695 44.6243313,34.9361281 C42.8648614,34.3275428 41.9338226,33.340462 41.8311868,31.9748561 C41.7578756,31.0248693 41.955813,30.2047759 42.425005,29.5145511 C42.8941969,28.8243263 43.6932775,28.0116545 44.8222707,27.0765113 C43.8545622,26.3343342 43.1287918,25.4066267 42.6449376,24.2933609 C42.1610834,23.1800952 41.9191599,21.6883415 41.9191599,19.8180551 C41.9191599,16.5821627 42.6119408,14.1775448 43.9975233,12.6041292 C45.3831058,11.0307136 47.3881383,10.2440176 50.0126808,10.2440176 C52.7105346,10.2440176 54.5726123,11.1049302 55.5989697,12.8267812 C55.9215392,12.4260056 56.4090516,11.9510193 57.0615217,11.4018082 C57.7139918,10.8525971 58.3994416,10.3998758 59.1178918,10.0436308 L59.9756291,9.64285714 L61.4271845,13.1162289 C60.9140058,13.2498207 60.1369182,13.5170005 59.0958986,13.9177762 C58.0548789,14.3185518 57.3584325,14.6302616 57.0065385,14.8529147 C57.2851213,15.3724387 57.5270447,16.1034723 57.7323162,17.0460372 C57.9375877,17.9886022 58.0402219,18.9348639 58.0402219,19.8848507 C58.0402219,25.9113292 55.4377118,28.9245232 50.2326134,28.9245232 C49.8074082,28.9245232 49.2245926,28.8614391 48.484149,28.735269 C47.7437054,28.6090989 47.263524,28.5014848 47.0435903,28.4124235 C46.5450738,29.1694442 46.3104813,29.7483337 46.3398058,30.1491094 C46.3837926,30.7428511 47.1462181,31.1139341 48.6271052,31.2623696 C48.8030522,31.2920566 49.5801397,31.3774057 50.9583911,31.5184194 C52.3366425,31.6594331 53.1430541,31.7447821 53.3776501,31.7744692 C55.5623252,32.0119659 57.1604863,32.6539395 58.1721815,33.7004093 C59.1838767,34.7468791 59.6897167,36.2423436 59.6897167,38.1868478 C59.6897167,40.5172841 59.0445874,42.2353984 57.7543095,43.3412424 C56.4640316,44.4470863 54.3160444,45 51.3102833,45 Z M71.0921371,37.5 C68.1994048,37.5 66.0450331,36.7139133 64.6289574,35.1417164 C63.2128816,33.5695195 62.5048544,31.3209459 62.5048544,28.3959284 L62.5048544,19.8183573 C62.5048544,16.8933398 63.2128816,14.6447663 64.6289574,13.0725693 C66.0450331,11.5003724 68.1994048,10.7142857 71.0921371,10.7142857 C74.0000145,10.7142857 76.1695312,11.5003724 77.6007521,13.0725693 C79.0319731,14.6447663 79.7475728,16.8933398 79.7475728,19.8183573 L79.7475728,28.3959284 C79.7475728,31.3209459 79.0319731,33.5695195 77.6007521,35.1417164 C76.1695312,36.7139133 74.0000145,37.5 71.0921371,37.5 Z M71.1262136,33.2142857 C71.6051804,33.2142857 71.996096,33.1042972 72.298972,32.8843168 C72.6018481,32.6643364 72.8201973,32.3233719 72.9540263,31.861413 C73.0878552,31.3994542 73.1758993,30.9521674 73.2181611,30.5195393 C73.2604228,30.0869112 73.2815534,29.5259696 73.2815534,28.8366977 L73.2815534,19.3995859 C73.2815534,18.8569676 73.2709881,18.4060146 73.2498572,18.0467133 C73.2287263,17.6874119 73.1794217,17.2951194 73.1019417,16.869824 C73.0244618,16.4445286 72.9082437,16.1108967 72.7532838,15.8689182 C72.598324,15.6269398 72.3870183,15.4216278 72.1193604,15.2529762 C71.8517025,15.0843246 71.5206568,15 71.1262136,15 C70.6472468,15 70.2563312,15.1136548 69.9534552,15.3409679 C69.6505791,15.568281 69.4322299,15.9129118 69.2984009,16.3748706 C69.164572,16.8368294 69.0765279,17.2841162 69.0342661,17.7167443 C68.9920044,18.1493724 68.9708738,18.710314 68.9708738,19.3995859 L68.9708738,28.8366977 C68.9708738,29.379316 68.9814391,29.8302691 69.00257,30.1895704 C69.0237008,30.5488717 69.0730055,30.9374979 69.1504854,31.3554607 C69.2279654,31.7734234 69.3441835,32.1033891 69.4991433,32.3453675 C69.6541032,32.5873459 69.8654089,32.7926579 70.1330668,32.9613095 C70.4007247,33.1299612 70.7317703,33.2142857 71.1262136,33.2142857 Z M91.3946975,33.2142857 C91.8368207,33.2142857 92.2754833,33.0424292 92.7106983,32.6987111 C93.1459133,32.3549929 93.4947709,32.0041192 93.7572816,31.6460795 L93.7572816,24.6428571 C90.8834808,26.28984 89.4466019,28.1587794 89.4466019,30.2497315 C89.4466019,31.1663132 89.6158497,31.8895426 89.9543503,32.4194415 C90.2928508,32.9493403 90.7729618,33.2142857 91.3946975,33.2142857 Z M88.6834271,37.5 C87.0135663,37.4853749 85.6456427,36.8455369 84.5796154,35.5804668 C83.5135882,34.3153967 82.9805825,32.8858159 82.9805825,31.2916813 C82.9805825,29.7852973 83.2340398,28.4690591 83.7409618,27.3429273 C84.2478839,26.2167956 85.0790745,25.2515543 86.2345586,24.4471744 C87.3900427,23.6427946 88.3479619,23.0577999 89.108345,22.6921727 C89.8687281,22.3265455 91.0391041,21.8439248 92.6195081,21.2442962 L93.6258925,20.8494208 L93.6258925,18.6776062 C93.6258925,17.5075992 93.4879819,16.6520444 93.2121567,16.1109161 C92.9363315,15.5697879 92.3735073,15.2992278 91.5236674,15.2992278 C90.1370865,15.2992278 89.4288972,16.2498442 89.3990782,18.1511057 L89.3096219,19.7744823 L83.316044,19.5551071 C83.316044,19.4673565 83.3197713,19.306483 83.327226,19.0724816 C83.3346808,18.8384802 83.3384081,18.6849191 83.3384081,18.6117936 C83.5322312,15.8915273 84.3559672,13.8952328 85.8096407,12.6228501 C87.2633143,11.3504675 89.3394272,10.7142857 92.0380416,10.7142857 C94.6471993,10.7142857 96.5816743,11.408967 97.8415247,12.7983503 C99.1013751,14.1877336 99.7312908,16.1547784 99.7312908,18.6995437 L99.7312908,30.5677431 C99.7312908,32.556755 99.8952926,34.728548 100.223301,37.0831871 L94.5651845,37.0831871 C94.2222667,35.3866769 94.0060826,34.1143134 93.9166257,33.2660583 C93.5438889,34.4653155 92.9214278,35.4707752 92.0492237,36.2824675 C91.1770196,37.0941599 90.0550986,37.5 88.6834271,37.5 Z M104.533981,36.4285714 L104.533981,0 L111,0 L111,36.4285714 L104.533981,36.4285714 Z" id="fitgoal"></path>
                </g>
            </g>
        </g>
    </g>
</svg>