<?xml version="1.0" encoding="UTF-8"?>
<svg width="36px" height="37px" viewBox="0 0 36 37" version="1.1" xmlns="http://www.w3.org/2000/svg" xmlns:xlink="http://www.w3.org/1999/xlink">
    <title>Logo - Sign</title>
    <g id="🖥--Web" stroke="none" stroke-width="1" fill="none" fill-rule="evenodd">
        <g id="#2-Screen---Onboarding-#1" transform="translate(-469.000000, -433.000000)" fill="#3EC7E6">
            <g id="Content" transform="translate(442.000000, 58.000000)">
                <g id="Text" transform="translate(27.000000, 375.000000)">
                    <g id="icono-logo" transform="translate(0.000000, 0.463054)">
                        <path d="M18,0 C22.8079688,0 27.3281484,1.87235156 30.7278984,5.27203125 C34.1276484,8.67185156 36,13.1920312 36,18 C36,22.8079688 34.1276484,27.3281484 30.7278984,30.7278984 C27.3281484,34.1276484 22.8079688,36 18,36 C13.1919609,36 8.67178125,34.1276484 5.27203125,30.7278984 C1.87228125,27.3281484 0,22.8079688 0,18 C0,13.1920312 1.87228125,8.67178125 5.27203125,5.27203125 C8.67171094,1.87235156 13.1919609,0 18,0 Z M18,2.109375 C9.23786719,2.109375 2.109375,9.23786719 2.109375,18 C2.109375,26.7621328 9.23786719,33.890625 18,33.890625 C26.7621328,33.890625 33.890625,26.7621328 33.890625,18 C33.890625,9.23786719 26.7621328,2.109375 18,2.109375 Z M25.1081016,12.2245313 C25.5199219,11.8127109 26.18775,11.8127109 26.5995703,12.2244609 C27.0114609,12.6363516 27.0114609,13.3041797 26.5995703,13.716 L26.5995703,13.716 L16.5402422,23.7753281 C16.3343672,23.9812031 16.0643672,24.0842109 15.7945078,24.0842109 C15.5246484,24.0842109 15.2547188,23.9812734 15.0487734,23.7753281 L15.0487734,23.7753281 L9.40035938,18.1269141 C8.98846875,17.7150234 8.98846875,17.0471953 9.40035938,16.635375 C9.81225,16.2235547 10.4800781,16.2235547 10.8918984,16.635375 L10.8918984,16.635375 L15.7945781,21.5380547 Z" id="Combined-Shape"></path>
                    </g>
                </g>
            </g>
        </g>
    </g>
</svg>