<?xml version="1.0" encoding="UTF-8"?>
<svg width="96px" height="98px" viewBox="0 0 96 98" version="1.1" xmlns="http://www.w3.org/2000/svg" xmlns:xlink="http://www.w3.org/1999/xlink">
    <title>illustrations / Female</title>
    <g id="illustrations-/-Female" stroke="none" stroke-width="1" fill="none" fill-rule="evenodd">
        <path d="M49.0448693,77.3084984 C49.2365282,77.9531067 49.3651362,78.6065342 49.3973819,79.2642109 C49.4372511,80.0780716 49.4342273,80.8932128 49.4354592,81.7073748 C49.4363551,82.5219134 49.4253799,83.3363766 49.4721926,84.1503126 C49.4967188,84.5714049 49.5242689,84.9921959 49.564138,85.4126855 C49.6025513,85.8172806 49.6437644,86.2215744 49.6826256,86.6261695 C49.7220468,87.0313672 49.7631479,87.4359623 49.8095126,87.8408588 C49.8554293,88.2381469 49.9315839,88.6344557 49.9954194,89.0308399 C50.1232023,89.8250395 50.3025015,90.6153974 50.4176293,91.4108023 C50.5293974,92.1882787 50.6018563,92.9678644 50.7411743,93.743533 C50.8340157,94.1854162 50.9363765,94.6265461 51.0090593,95.0704633 C51.0466886,95.2984859 51.0755826,95.5268098 51.1096281,95.7549077 C51.126315,95.8640603 51.1455776,95.9729115 51.1656242,96.081838 C51.1770474,96.1445122 51.1997817,96.2124595 51.195862,96.275435 C51.1880226,96.4111036 51.1639443,96.541725 51.0602397,96.6611977 C50.9771416,96.756565 50.8537263,96.8371676 50.7076887,96.8880904 C50.4910961,96.96342 50.2614005,96.9927985 50.0217375,96.9484294 C49.8707722,96.9198795 49.7399655,96.8686554 49.6288694,96.7942298 C49.5155335,96.7297476 49.4402748,96.6411601 49.3602005,96.5585235 C49.1978121,96.3903126 49.2166267,96.1656798 49.3631123,95.995661 C49.3510172,95.9384105 49.3384741,95.8815367 49.3291787,95.8254915 C49.3051004,95.6813107 49.2876297,95.5368286 49.2674711,95.3923465 C49.2290579,95.1166403 49.1751897,94.8415367 49.1242333,94.5665838 C49.0102254,94.0207458 48.8874821,93.4757363 48.819503,92.9259058 C48.7668432,92.4980184 48.7141518,92.0703856 48.6541803,91.6432101 C48.6481182,91.6446162 48.6420221,91.6460328 48.6358903,91.6474668 C48.5846662,91.6593381 48.5332161,91.6717885 48.481992,91.684818 C48.3654571,91.7136277 48.2489223,91.7424374 48.1317848,91.761113 C47.9049675,91.7978851 47.6771709,91.8109146 47.4505795,91.8589789 C46.6890729,92.0201104 45.928395,92.1915206 45.1668884,92.3532311 C44.7687716,92.4380676 44.3694496,92.5020569 43.9707302,92.5777728 C43.6075664,92.6466843 43.2454571,92.7174779 42.8834232,92.8024592 C42.5662104,92.8933761 42.2489223,92.9909525 41.9300522,93.0589954 C41.614346,93.1263145 41.2988658,93.1930545 40.9828583,93.251832 C40.8315965,93.2802073 40.6603724,93.1115477 40.5567942,92.912486 C40.4441012,92.6964859 40.3802217,92.3995582 40.3802217,92.0936546 C40.3802217,91.787751 40.4441012,91.4908233 40.5567942,91.2748233 C40.6318225,91.1312093 40.72041,91.0321851 40.8224816,90.9767374 C40.8760409,90.9632736 40.9292989,90.949665 40.9828583,90.9354773 C41.3330654,90.8704746 41.6833479,90.8006944 42.0326511,90.71774 C42.3830089,90.6207426 42.7332161,90.5199812 43.0844025,90.4378954 C43.4496003,90.3519007 43.8154006,90.2908068 44.181427,90.2213162 C44.9408997,90.0771231 45.7012763,89.9442223 46.4584138,89.7552946 C46.6540447,89.7060721 46.8500522,89.6727745 47.0459844,89.6319487 C47.2302406,89.5935841 47.41412,89.5460988 47.5986021,89.516131 C47.7872274,89.485005 47.9761539,89.4696591 48.1644778,89.4396913 C48.2002299,89.4339035 48.2359544,89.4271122 48.2716574,89.4196284 C48.1923732,88.9792798 48.117377,88.5385585 48.0539254,88.0972053 C47.9962495,87.6946441 47.9498848,87.2908776 47.9143833,86.8871864 C47.8789938,86.4790508 47.8312852,86.0715179 47.7949998,85.6633823 C47.721869,84.8424407 47.6566896,84.021725 47.6449305,83.1992768 C47.6335073,82.4009341 47.6467224,81.6023653 47.6405628,80.8040226 C47.637539,80.3988249 47.6410108,79.9927985 47.6213002,79.5879021 C47.6116689,79.3848136 47.6006936,79.182403 47.5841188,78.9799171 C47.567768,78.7797665 47.5382021,78.5812731 47.5091961,78.3818004 C47.4859018,78.2634576 47.4626074,78.1448136 47.4292338,78.0280527 C47.3636065,77.796113 47.300219,77.5642486 47.2245124,77.3335895 C47.2236541,77.3309762 47.2228142,77.3283639 47.2219928,77.3257524 C46.9878897,77.3192077 46.7538569,77.3091372 46.5199731,77.2953672 C45.563589,77.2388701 44.6055475,77.1414689 43.6653592,76.9523164 C43.3464138,76.8881356 43.0250579,76.8248588 42.7102556,76.7419209 C42.5471671,76.699209 42.3841539,76.6562712 42.2211407,76.6133333 C41.8409524,76.513597 41.4608394,76.4137853 41.0806511,76.3137476 C41.002685,76.2931827 40.9264515,76.2646328 40.8499166,76.239322 C40.6527792,76.1746139 40.4556417,76.1098305 40.2585042,76.0448211 C40.0427603,75.974162 39.8273931,75.9032768 39.6117245,75.8323917 C39.5390315,75.8085122 39.4646059,75.7873446 39.3930428,75.76 C39.0414044,75.6257627 38.6900673,75.4919021 38.3384289,75.3577401 C38.0747754,75.2570998 37.8108206,75.159096 37.5525155,75.0454991 C37.1578639,74.872467 36.763589,74.6995104 36.369314,74.526177 C36.1533441,74.4314124 35.9446812,74.3260264 35.7342858,74.2192844 C35.382346,74.0412053 35.0307076,73.8632015 34.6790692,73.6854991 C34.6081841,73.6495669 34.5399355,73.6074576 34.4707829,73.5683616 C34.2924025,73.4668173 34.1137961,73.3653484 33.935491,73.2638041 C33.6606888,73.1075706 33.3793328,72.9592467 33.1098036,72.7941996 C32.8093893,72.6099435 32.5086737,72.426064 32.2081841,72.2418832 C31.9854345,72.1056121 31.7559807,71.9764218 31.5405381,71.8290019 C31.1971859,71.5938983 30.8534571,71.3587947 30.510105,71.1236911 C30.2808771,70.9665537 30.0604628,70.7970621 29.8377133,70.6311111 C29.5793328,70.4386441 29.3165833,70.2509228 29.0688244,70.0448964 C28.7783536,69.8030885 28.4876568,69.5614313 28.1968846,69.3196234 C28.103024,69.2415819 28.0174496,69.1515631 27.9282594,69.0683239 C27.7637396,68.913823 27.5989939,68.7596234 27.4344741,68.6054237 C27.2467528,68.4294539 27.0664138,68.2511488 26.8872048,68.0663653 C26.7206511,67.8950659 26.5537961,67.7235405 26.3872424,67.5520151 C26.3163573,67.4790207 26.2413291,67.4083616 26.1739091,67.3322034 C25.9246436,67.0497175 25.6754534,66.7672316 25.4258865,66.4850471 C25.223476,66.2555179 25.030105,66.0183051 24.8335701,65.7838041 C24.6849449,65.6061017 24.5396342,65.4253861 24.3980899,65.2424105 C24.1296907,65.3574388 23.8224967,65.2479849 23.6653592,65.0005273 C23.4220447,64.6167985 23.183702,64.2304331 22.9400108,63.8470056 C22.6925532,63.4580038 22.4392198,63.0693032 22.2246812,62.660565 C22.0198601,62.2703578 21.8124778,61.8810546 21.636508,61.4764595 C21.429879,61.0021092 21.2442669,60.5213559 21.0661878,60.0354802 C20.962911,59.7538983 20.8705569,59.4690772 20.7849072,59.1816196 C20.7007641,58.8985311 20.6192575,58.6116008 20.5644929,58.3212053 C20.4397471,57.6599623 20.3435513,56.9955556 20.2667151,56.327307 C20.1269788,55.1073446 20.0810278,53.8764595 20.0354534,52.6500188 C20.0236266,52.3303955 20.0063008,52.0108475 20.0021577,51.6909981 C19.9977886,51.373484 20.0010278,51.0559699 20.003363,50.7382298 C20.0078074,50.1041055 20.0204628,49.4702825 20.0436643,48.8363842 C20.0539844,48.5566102 20.076056,48.2770621 20.1054345,47.9989454 C20.1430993,47.6435405 20.1784289,47.2886629 20.2267151,46.9346139 C20.2714609,46.6053484 20.3296907,46.2787194 20.3852839,45.9512618 C20.4362067,45.6531827 20.488862,45.3554049 20.5536455,45.0602637 C20.6904439,44.4349529 20.8401991,43.8113748 21.0102933,43.1943503 C21.10325,42.8568738 21.1995212,42.5222599 21.3024967,42.1880226 C21.4016304,41.8646328 21.5076191,41.5435782 21.6129298,41.2222222 C21.7989185,40.6549153 22.0008018,40.09258 22.201781,39.5302448 C22.3117622,39.2224482 22.4156417,38.9120151 22.5318752,38.6069303 C22.6551897,38.2832392 22.7788055,37.959548 22.9020447,37.6358569 C22.9773743,37.4378154 23.0685984,37.2445198 23.1519129,37.0497175 C23.2078074,36.9187194 23.2616681,36.7866667 23.3198978,36.6565725 C23.4541351,36.3578908 23.5847566,36.0577778 23.7283347,35.7632392 C23.8786925,35.4545386 24.0252839,35.1441055 24.1721012,34.8339736 C24.2927038,34.5788324 24.4104439,34.3216573 24.5402368,34.0712618 C24.856847,33.4612429 25.1734571,32.8518267 25.4971483,32.2456497 C25.8025343,31.6730697 26.1482971,31.1242938 26.4960937,30.5769492 C26.8245306,30.059661 27.1693893,29.5514878 27.5266021,29.0535593 C27.9047566,28.5271563 28.2899166,28.0039925 28.695717,27.4984557 C28.9369976,27.1979661 29.1779769,26.8975518 29.4192575,26.5971375 C29.48841,26.5111864 29.5637396,26.4299812 29.6361313,26.346742 C29.7826473,26.1780791 29.9292387,26.0094915 30.0757547,25.8406026 C30.2452462,25.6454991 30.4173743,25.4554426 30.5936455,25.266516 C30.7572613,25.0917514 30.9205758,24.9169115 31.0838903,24.7421469 C31.1535701,24.66742 31.2212914,24.5902825 31.2933818,24.5178908 C31.5476191,24.2639548 31.8015551,24.0097175 32.0557923,23.7557815 C32.2867528,23.5248211 32.5318752,23.3064407 32.7696907,23.0828625 C32.8620447,22.9957062 32.9515362,22.9024482 33.048636,22.820339 C33.1659995,22.7215066 33.283137,22.6225989 33.4005758,22.5237665 C33.6615174,22.3033522 33.9172613,22.0753296 34.1935701,21.874049 C34.4957923,21.653936 34.7982406,21.433823 35.1004628,21.2134087 C35.2005004,21.1407156 35.3073178,21.0757062 35.4102933,21.0071563 C35.5959807,20.8835405 35.7813667,20.7603013 35.9670541,20.6366855 C36.0600108,20.5749153 36.1509336,20.50629 36.2480334,20.4512994 C36.4157923,20.3565348 36.583476,20.2617702 36.7512349,20.1667797 C37.0428357,20.0019586 37.3409148,19.8522034 37.6398978,19.7006403 C37.9330052,19.5520904 38.2325155,19.4164218 38.5302933,19.2772128 C38.6792198,19.2071563 38.8316116,19.14629 38.9840786,19.0842185 C39.1426473,19.0200377 39.3000861,18.9485499 39.4613667,18.8905461 C39.756508,18.7846328 40.0513479,18.6784181 40.349427,18.580113 C40.6839656,18.4697552 41.0206134,18.3679849 41.3572613,18.2650094 C41.9339844,18.0887382 42.5154534,17.926855 43.1036266,17.792693 C43.7542481,17.6443691 44.4056982,17.5084746 45.0615927,17.3845574 C45.3308959,17.3336347 45.6030616,17.2865537 45.8746247,17.2497928 C46.2439656,17.1994727 46.6123272,17.1456121 46.983702,17.1123917 C47.3229863,17.0820339 47.6616681,17.0608663 48.0018564,17.0414313 C48.3010654,17.0241055 48.5988432,17.0173258 48.8990315,17.0117514 C49.1185419,17.0076083 49.3380522,17 49.5575626,17 C49.6331935,17 49.708523,17.0008286 49.7838526,17.0032392 C50.0148131,17.0102448 50.2458488,17.0176271 50.4768093,17.0247081 C50.6066021,17.0287759 50.7381276,17.0270433 50.8678451,17.0367608 C51.202459,17.0626742 51.5369976,17.0876836 51.8716116,17.113823 C52.2023084,17.1397363 52.5324778,17.1767985 52.8626473,17.2085876 C53.5535701,17.2745009 54.2386172,17.3816196 54.923589,17.4910734 C55.2401991,17.5416949 55.5536455,17.6182298 55.8676191,17.6841431 C56.1739091,17.7482486 56.4781652,17.8244821 56.7827227,17.8968738 C57.0899166,17.9698682 57.3938714,18.0531073 57.6987302,18.1355179 C57.8117245,18.1658004 57.9256229,18.193145 58.0365833,18.2308098 C58.2310842,18.2970245 58.4255852,18.3632392 58.6203874,18.4294539 C58.7692387,18.4803766 58.9137208,18.5312994 59.0588055,18.592467 C59.2038903,18.65371 59.3488997,18.7151789 59.4939844,18.7764218 C59.8388432,18.9223352 60.1884477,19.0606403 60.528636,19.2177778 C61.3872424,19.6147646 62.2317622,20.0369868 63.0377133,20.5334087 C63.8245306,21.0180038 64.5852085,21.5432768 65.3147001,22.1105838 C66.0403498,22.6750282 66.7339091,23.2835405 67.3776756,23.9397363 C67.7788055,24.3487006 68.1701426,24.7677589 68.5338338,25.2103202 C68.8151144,25.5522411 69.0967716,25.8944633 69.3780522,26.2363842 C69.5313479,26.4229002 69.6796718,26.6109981 69.8218187,26.8060264 C70.0813291,27.1630132 70.3408394,27.5199247 70.6007264,27.8765348 C70.6648319,27.9648211 70.736621,28.0510734 70.7946247,28.1434275 C70.8455475,28.2243315 70.896395,28.3056121 70.9473178,28.386516 L71.6553404,29.5155556 C71.956056,29.9945763 72.2261878,30.4931073 72.4795212,30.9989454 C72.8923272,31.8237288 73.2536831,32.6758569 73.5685607,33.5427495 C73.7318752,33.992693 73.8842669,34.446403 74.0231746,34.9045574 C74.0782406,35.0867043 74.1338338,35.2685499 74.1803121,35.4533333 C74.2850955,35.8688512 74.3898036,36.2843691 74.4942858,36.700113 C74.5504816,36.9222599 74.6176003,37.1444821 74.6579016,37.3701695 L74.8741728,38.5830508 C74.9271294,38.8803013 74.9898036,39.1777778 75.0257358,39.4778908 C75.1081464,40.1667797 75.1904816,40.8555932 75.2725908,41.5444821 C75.282911,41.6309605 75.2838149,41.719548 75.2893893,41.806629 C75.302346,42.0076083 75.3150014,42.2082863 75.3276568,42.4092655 C75.3529675,42.8082863 75.3782029,43.2070056 75.4035136,43.6060264 C75.4179769,43.8326177 75.4121012,44.0615443 75.4141351,44.2883616 C75.4185795,44.7265537 75.4226473,45.1646704 75.4273138,45.6025612 C75.4291257,45.8082109 75.4167716,46.0124294 75.4070541,46.2181544 C75.3855852,46.6704331 75.3644176,47.1229379 75.3429487,47.5755179 C75.3338338,47.7694162 75.3187679,47.9598493 75.2991068,48.153145 C75.2540598,48.6012806 75.2087114,49.0497175 75.1634383,49.4979284 C75.1390315,49.739209 75.1166586,49.979887 75.0780899,50.219435 C75.0118752,50.6322411 74.9459618,51.0451224 74.8797471,51.4579284 C74.8471294,51.6607156 74.8147377,51.8631262 74.782346,52.0659134 C74.7721012,52.1282863 74.7656229,52.192693 74.7514609,52.2544633 C74.6776379,52.5822976 74.6034383,52.9101318 74.5296153,53.2378908 C74.4428357,53.6225235 74.3559807,54.0067797 74.269201,54.3914124 C74.2224213,54.5985687 74.1538714,54.8012806 74.0944364,55.0048964 C73.9666775,55.4412806 73.8392952,55.8776648 73.7115362,56.314049 C73.6603874,56.4894162 73.6085607,56.6615443 73.5482971,56.8337476 C73.4032123,57.2474576 73.2584289,57.6611676 73.1136455,58.0745763 C73.0494647,58.2573258 72.9856605,58.4400753 72.9214797,58.6230508 C72.9035513,58.674275 72.8876568,58.726629 72.8667905,58.7769492 C72.5866398,59.4508475 72.3064891,60.1246704 72.0263385,60.7987947 C71.9263008,61.039548 71.8103686,61.2722411 71.6979769,61.50742 C71.502572,61.9152542 71.3074684,62.3227872 71.1124402,62.7303202 C70.8372613,63.3047081 70.516508,63.8573258 70.2122519,64.4164218 C70.1296153,64.5685122 70.0469035,64.7203766 69.9641916,64.872467 C69.8447189,65.0922787 69.709653,65.3047834 69.5772989,65.5169115 C69.07583,66.320226 68.5350391,67.0949906 67.9520635,67.8415066 C67.7623084,68.0848964 67.5745871,68.3335593 67.3685607,68.5636158 C67.270331,68.673371 67.1717245,68.7831262 67.0734195,68.8928814 L66.1791822,69.8912994 C65.8063762,70.30742 65.4062255,70.6993597 64.9959807,71.0783427 C64.3127415,71.7092279 63.5861878,72.2912994 62.8317622,72.8351036 C62.0969976,73.3644444 61.3381276,73.859661 60.5409901,74.2901695 C59.7182406,74.734162 58.8675438,75.1208286 57.9950767,75.4559699 C57.5504063,75.6266667 57.1022707,75.7870433 56.6485607,75.9315254 C56.3863385,76.0150659 56.1241916,76.1025235 55.8576003,76.1716008 C55.4624213,76.274049 55.0669411,76.3767232 54.6717622,76.4791714 C54.4466021,76.5377024 54.2224213,76.6050471 53.9934948,76.6474576 C53.5767716,76.7251224 53.1598225,76.8024859 52.7431746,76.880226 C52.4821577,76.9287382 52.22325,76.9787571 51.9595965,77.0111488 C51.5399355,77.0626742 51.1200485,77.1141243 50.7004628,77.1656497 L50.1831746,77.2292279 C49.9050579,77.2633522 49.6228733,77.2774388 49.3433253,77.2933333 C49.2438683,77.2989358 49.1443809,77.3039952 49.0448693,77.3084984 L49.0448693,77.3084984 Z M58.7277547,87.2560473 C58.7373969,87.2552333 58.7470391,87.254962 58.7566059,87.254962 C58.8636492,87.254962 58.9667754,87.2975618 59.0664364,87.3652603 C59.1547227,87.4097595 59.2312575,87.4903465 59.2962669,87.6063428 C59.3606737,87.7234246 59.4054195,87.8612636 59.4301276,88.0202668 C59.4810504,88.3541464 59.4230466,88.6821923 59.2962669,88.932229 C59.1891483,89.1431932 59.0440635,89.3165772 58.8869261,89.3747789 C58.8032349,89.4055756 58.7181125,89.4233482 58.6330654,89.4413921 C58.4631219,89.4856199 58.2936304,89.5336465 58.1235362,89.5754323 C58.1590165,89.5667496 58.194572,89.5580668 58.2302029,89.5496554 C58.0601087,89.5910342 57.8909185,89.6391964 57.7219543,89.6938707 C57.5522368,89.7489521 57.3812387,89.7939939 57.2126511,89.8591147 C56.8710315,89.9922053 56.5299392,90.1320793 56.1880183,90.2624565 C55.8207867,90.4023305 55.4488846,90.5147995 55.0769072,90.605833 C54.6387905,90.7128752 54.2002971,90.7914272 53.7604477,90.8671301 C53.35525,90.9371349 52.9491483,90.9900455 52.5445532,91.0680548 C52.1254948,91.1490488 51.7038752,91.2063008 51.2836869,91.2535133 C51.1294873,91.2710146 50.9640635,91.1278845 50.8575475,90.9355069 C50.7448545,90.7330898 50.6810504,90.4548342 50.6810504,90.1681671 C50.6810504,89.8815 50.7448545,89.6032443 50.8575475,89.4008272 C50.975589,89.1876924 51.1200711,89.1014073 51.2836869,89.0828208 C51.6020296,89.0472757 51.9198451,88.9969428 52.2379618,88.9476952 C52.5266247,88.9026533 52.8143837,88.8426879 53.1033479,88.7981887 C53.6519731,88.7136674 54.2021803,88.6363365 54.7490729,88.5139637 C55.0000711,88.4508779 55.2506925,88.3814158 55.4997321,88.2974371 C55.7843272,88.2015196 56.0659091,88.0864729 56.3489976,87.978888 C56.6314835,87.871303 56.9119355,87.7520506 57.1967566,87.6661726 C57.4962669,87.5762245 57.794346,87.4860051 58.095137,87.4120659 C58.0656831,87.4192563 58.0361539,87.4265824 58.0068507,87.4336371 C58.141314,87.3959213 58.275476,87.3567132 58.4099392,87.3233388 C58.5147227,87.2974262 58.6218413,87.2640518 58.7277547,87.2560473 Z M22.2566433,52.9621107 C22.2714308,53.398555 22.2944094,53.8353629 22.3210849,54.2715891 C22.249467,54.5833038 22.2575856,54.9266556 22.2928872,55.2408431 C22.3316682,55.5885585 22.374146,55.9365649 22.4384427,56.2806439 C22.4659155,56.4270465 22.5082484,56.5736674 22.5532633,56.7183973 C22.5676884,56.81549 22.5824759,56.9125099 22.5978433,57.0093117 C22.6008153,56.9691655 22.6039323,56.9290193 22.6071217,56.8888731 C22.6149504,56.9136736 22.6227791,56.9384013 22.6303903,56.9630563 C22.748183,57.3402995 22.8937385,57.7104881 23.0670567,58.0653309 C23.1599136,58.2562435 23.2726321,58.4349377 23.3901348,58.6110863 C23.4489949,58.6988697 23.5061878,58.788035 23.5605536,58.8789457 C23.6759542,59.0720402 23.7933119,59.2428069 23.9292265,59.4188101 C23.9594539,59.5332849 23.9930157,59.6470325 24.02694,59.7602709 C24.0815958,59.9428924 24.1322648,60.1278412 24.1948217,60.30799 C24.2562914,60.4844295 24.3213854,60.6582509 24.3885091,60.8324359 C24.4963709,61.0801495 24.6043052,61.3284449 24.7277519,61.5688129 C24.8806287,61.8662729 25.0406092,62.1585691 25.2051565,62.4497744 C25.4939478,62.9606201 25.8348579,63.438447 26.1851189,63.9083465 C26.4892776,64.2847897 26.7933639,64.6614511 27.113035,65.0248032 C27.3383996,65.2810988 27.5641265,65.5376125 27.789781,65.7939081 C27.9531685,65.979366 28.1338081,66.1512964 28.3056766,66.328536 C28.4687741,66.4970482 28.6267975,66.6729059 28.7975062,66.8336361 L29.564572,67.5547402 C29.9157028,67.8848553 30.2943065,68.1842789 30.6646466,68.4925027 C30.920601,68.6837062 31.1763379,68.8749097 31.4320023,69.0664041 C31.6234426,69.2093158 31.819667,69.3433546 32.0167613,69.4786298 C32.2075492,69.6098322 32.3984095,69.7408164 32.5892699,69.8720915 C32.6592206,69.9198015 32.7277215,69.9715115 32.7999194,70.0160941 C33.1026284,70.2019157 33.4053374,70.3880282 33.7080464,70.5740679 C33.9105047,70.6985066 34.1109335,70.8275271 34.3173787,70.9454201 L35.3647547,71.5428128 C35.5533679,71.6505239 35.7399515,71.7567804 35.9333489,71.8550367 C36.3033991,72.042822 36.6735217,72.2308981 37.0435719,72.4186833 C37.2568309,72.5269762 37.4776287,72.618687 37.6962519,72.7150524 C37.974315,72.8371637 38.2517983,72.9596387 38.5298614,73.0821136 C39.0019019,73.2627715 39.4744498,73.4437202 39.9467802,73.6244508 C40.0781281,73.6747062 40.2129554,73.7164524 40.3466228,73.760526 C40.663177,73.8647461 40.9797312,73.9693298 41.2959954,74.0735499 C41.4296629,74.1176234 41.5621705,74.1650424 41.6980851,74.2008249 C41.9914432,74.2781354 42.2845113,74.3553732 42.5775794,74.4326837 C42.805481,74.492903 43.0334551,74.5528313 43.2614292,74.6130506 C43.5459438,74.6883247 43.8379246,74.7454894 44.126426,74.8019995 C44.4181168,74.8588005 44.7103151,74.908256 45.0039631,74.9497113 C45.8828775,75.0610588 46.7694032,75.120478 47.6545515,75.1284054 C48.0888983,75.1324055 48.5232452,75.1270236 48.9570846,75.106296 C49.1736781,75.0960412 49.3899816,75.0841137 49.6060677,75.0681862 C49.7527105,75.0577132 49.9008031,75.0508768 50.0466485,75.0329855 C50.6217666,74.9619297 51.1971021,74.8909466 51.7722202,74.8204726 C52.1804715,74.7443257 52.5887952,74.6681789 52.9968289,74.5917411 C53.1777584,74.5579951 53.358398,74.5244672 53.5394,74.4906484 C53.6483491,74.4701389 53.7559935,74.4349383 53.8629855,74.4067923 C54.3290819,74.2857719 54.7948885,74.1644606 55.260695,74.0431493 C55.4084976,74.0048213 55.5542705,73.9574023 55.7001159,73.9119469 C55.969698,73.8277999 56.2387002,73.741762 56.5054552,73.6488876 C56.9754661,73.4849573 57.4404027,73.3064813 57.8993954,73.1144778 C58.6953113,72.7701079 59.4703507,72.3755553 60.2108134,71.923838 C60.9101756,71.4971393 61.5818474,71.0269489 62.2322078,70.5286125 C62.8701729,70.0288944 63.477548,69.4939755 64.0517963,68.9215287 C64.2160536,68.7578894 64.3839353,68.5956319 64.5385518,68.4226105 C64.6285816,68.321736 64.7189014,68.2206432 64.8089312,68.1197687 C65.0776434,67.8188904 65.3460657,67.518085 65.6148504,67.2172068 C65.8801557,66.9200377 66.1298761,66.6118139 66.3742325,66.2972627 C66.7545034,65.7981264 67.1181021,65.2864807 67.4578524,64.7591983 C67.6914805,64.396719 67.928733,64.0324942 68.1345984,63.6532146 C68.4053402,63.1537873 68.6762996,62.65436 68.946969,62.15486 C69.0044518,62.0488944 69.0667913,61.9443834 69.1185476,61.8352905 C69.216841,61.629614 69.314772,61.4239376 69.4130655,61.2184793 C69.6166836,60.7914897 69.8202294,60.364791 70.0241375,59.9380923 C70.2441379,59.4073917 70.4638484,58.8766912 70.6838488,58.3459906 C70.7390845,58.2124609 70.7954075,58.0806767 70.843032,57.9446015 C70.9562579,57.6201592 71.0695564,57.2957169 71.1827823,56.9709837 C71.294341,56.6516324 71.4056097,56.3323539 71.5171684,56.0130026 C71.5378275,55.9533652 71.5534123,55.8916913 71.5709544,55.8311811 C71.620826,55.6607053 71.6704076,55.4903022 71.7202067,55.3195354 C71.8391592,54.9113098 71.9580392,54.5027933 72.0769916,54.0944949 C72.1265733,53.9249646 72.1661516,53.7558706 72.205005,53.5834311 C72.3015588,53.1552778 72.3978226,52.7271973 72.4940863,52.299044 C72.5391013,52.0987495 72.5928872,51.8984549 72.6254342,51.6956149 C72.7277145,51.0558214 72.8302122,50.4160279 72.93213,49.7765254 C72.9783047,49.3171715 73.024407,48.857745 73.0705817,48.3986821 C73.0895735,48.2097332 73.1084928,48.0210752 73.1274846,47.8324899 C73.1408224,47.699833 73.1405324,47.5645578 73.1467664,47.4319008 C73.1677153,46.9929837 73.1883744,46.5540666 73.2090334,46.1150768 C73.2178044,45.9247461 73.2226611,45.7384154 73.2210901,45.5480847 C73.2164271,45.1111313 73.2121503,44.6738869 73.2079461,44.2366426 C73.2059164,44.040639 73.2067863,43.8454355 73.1943184,43.6497228 C73.1682952,43.2369153 73.1419097,42.8238896 73.1158866,42.4110821 C73.1011715,42.1781324 73.0971847,41.9411826 73.0697118,41.7093238 C72.9958468,41.0869125 72.9213293,40.4641375 72.8471743,39.8417262 C72.7699024,39.4050637 72.691978,38.9686921 72.6144161,38.5323205 C72.5801293,38.3399534 72.5459151,38.147368 72.5119183,37.9550009 C72.4909694,37.8382715 72.4538556,37.7223421 72.4252954,37.6075764 C72.2987317,37.1032763 72.1720956,36.5993398 72.0455319,36.0953306 C72.0067509,35.9410733 71.9586191,35.7893614 71.9122269,35.6373587 C71.8289384,35.3654992 71.7434028,35.0941488 71.6514158,34.8251257 C71.4733133,34.3035162 71.2787561,33.7875795 71.0678166,33.2782611 C70.8631111,32.7989797 70.6425308,32.3265347 70.4007115,31.8648536 C70.2310901,31.5409931 70.0629185,31.2117508 69.8692311,30.9014906 C69.6101597,30.4873012 69.3510159,30.0730391 69.0919446,29.6585588 C69.0322146,29.5631389 68.9769789,29.4628462 68.911015,29.3716445 C68.8051104,29.2258964 68.6997856,29.0801483 68.5941709,28.9346911 C68.3608327,28.6127943 68.127567,28.2911884 67.8942289,27.9695826 C67.5309201,27.5258654 67.1673213,27.0826573 66.8037951,26.6391584 C66.6754917,26.4829373 66.5379099,26.333771 66.4014154,26.1846046 C66.1374874,25.8963085 65.869355,25.6116487 65.5896247,25.3386256 C65.0516203,24.8124342 64.4875928,24.3152615 63.8965999,23.8499439 C63.2756695,23.3732079 62.6308907,22.9254907 61.9649454,22.5141377 C61.2847925,22.093621 60.5826033,21.7163777 59.8599725,21.374917 C59.2557144,21.0890936 58.6381184,20.8351253 58.023132,20.5743206 L58.1615837,20.6330853 C57.7963177,20.5086467 57.4344587,20.3737351 57.061799,20.2728605 C56.8373043,20.2120594 56.6124472,20.1512583 56.3878801,20.0904572 C56.1996293,20.0396199 56.0078991,19.9998374 55.8184885,19.9546729 C55.4144416,19.8583803 55.0089449,19.7731423 54.6026508,19.6873953 C54.2616683,19.6154667 53.915974,19.5683386 53.571947,19.5137922 C53.28736,19.4796825 53.0027729,19.4455727 52.7181859,19.4117539 C52.4274373,19.3768442 52.1346592,19.3552438 51.8429683,19.3273888 C51.5516399,19.2995337 51.2596591,19.2802606 50.9677508,19.2577875 C50.7152033,19.2382235 50.4631633,19.2319688 50.210036,19.2239687 C49.9453106,19.2157504 49.6805127,19.2015683 49.4157873,19.2063684 L48.3463025,19.2260051 C48.0597583,19.2310961 47.7723442,19.2577875 47.4860899,19.2742969 C47.2399939,19.2881881 46.9945502,19.3151704 46.7490341,19.3370617 C46.6779236,19.3467346 46.6071755,19.3564075 46.536065,19.3660804 C45.9476816,19.4464455 45.3584284,19.5430291 44.7774388,19.6668859 C44.4642191,19.7336507 44.1513618,19.7995428 43.8395918,19.8711805 C43.7033873,19.9021629 43.5674727,19.9330725 43.431848,19.9660913 C43.2678806,20.006092 43.1008688,20.0396199 42.9385686,20.086239 C42.3553319,20.2535875 41.7680358,20.4138086 41.1918304,20.6044302 C40.8746964,20.709523 40.5592295,20.8166523 40.2449225,20.9299634 C40.0028133,21.0169468 39.7649808,21.1166577 39.5265685,21.214405 C39.1544887,21.38939 38.7829888,21.5632113 38.4163456,21.7499056 C38.2486813,21.8354345 38.0790599,21.9172541 37.915455,22.0101286 C37.6950921,22.135149 37.4745118,22.2600967 37.2540039,22.3854081 C37.2026826,22.4144268 37.1545507,22.4513002 37.1056214,22.4840281 C36.9960199,22.5572658 36.8864183,22.6302853 36.7768168,22.7035957 C36.5760981,22.8377073 36.375307,22.9715279 36.1745883,23.1055667 C36.0217115,23.2078958 35.8758661,23.3232434 35.7271937,23.4317545 L35.2735651,23.7632514 C35.0181906,23.9794735 34.7627437,24.1956956 34.5070792,24.411845 C34.2867888,24.5982484 34.0823733,24.8042158 33.8725211,25.0022558 C33.6728898,25.1908411 33.4744182,25.3789172 33.2807309,25.573248 C33.0745756,25.7800882 32.8633462,25.9826373 32.6642947,26.1963139 C32.3961624,26.484101 32.12832,26.772179 31.8601152,27.059966 C31.6704147,27.2633152 31.4928921,27.4786646 31.3108028,27.6889229 C31.1383543,27.8883447 30.9651085,28.0858029 30.8005612,28.2914794 C30.5924488,28.5514114 30.3846263,28.8114161 30.1765139,29.0713481 C30.0037755,29.2994977 29.831327,29.5278655 29.6585886,29.7560151 C29.4898371,29.9792919 29.3301465,30.2096961 29.167049,30.4375548 C29.0127225,30.653486 28.8674569,30.875381 28.7199443,31.0961123 C28.5859869,31.2964068 28.4509421,31.4955377 28.3221313,31.6989596 C28.154757,31.9634008 27.9786842,32.2239146 27.8229079,32.495556 C27.6651745,32.76967 27.5001198,33.0407295 27.3514474,33.3200073 C27.042287,33.9015452 26.7389981,34.4859195 26.436579,35.0708756 C26.1610529,35.6038308 25.9209734,36.155259 25.6587851,36.6947597 C25.4053678,37.2166602 25.1793509,37.7510699 24.9525366,38.285116 C24.8327867,38.5996672 24.706513,38.9124001 24.5937945,39.2294968 C24.463534,39.5951035 24.3332734,39.9604192 24.2033028,40.3260986 C24.0068609,40.8772359 23.8160006,41.4306278 23.6342012,41.9869289 C23.5325733,42.29828 23.4351497,42.610213 23.3391759,42.9233096 C23.2502334,43.2130603 23.1729614,43.5062293 23.0927899,43.7983073 C23.0146481,44.0826762 22.9475244,44.3707541 22.8773562,44.6571594 C22.8050859,44.9509102 22.7312208,45.245461 22.6748978,45.542921 C22.5655862,46.118786 22.4613488,46.6955238 22.3792201,47.2761889 C22.3438461,47.6188133 22.3073123,47.9611468 22.2750552,48.3043531 C22.2444653,48.6268317 22.2365642,48.9557831 22.2294604,49.2796436 C22.2161226,49.8975457 22.2070616,50.5154479 22.2053323,51.1339319 C22.2037272,51.7439067 22.2359843,52.3527178 22.2566433,52.9621107 Z" id="Color" fill="#C3C4C3" fill-rule="nonzero"></path>
    </g>
</svg>