<?xml version="1.0" encoding="UTF-8"?>
<svg width="60px" height="74px" viewBox="0 0 60 74" version="1.1" xmlns="http://www.w3.org/2000/svg" xmlns:xlink="http://www.w3.org/1999/xlink">
    <title>Color</title>
    <g id="Symbols" stroke="none" stroke-width="1" fill="none" fill-rule="evenodd">
        <g id="illustrations-/-Male" transform="translate(-21.000000, -21.000000)" fill="#C3C4C3" fill-rule="nonzero">
            <path d="M66.6115321,39.8328631 C66.8088268,39.9590451 67.0042454,40.088213 67.1976309,40.2204752 C67.9883139,40.761477 68.7593504,41.3383938 69.4678283,41.984762 C69.7081623,42.2040447 69.9510282,42.4237941 70.1781502,42.6570208 C70.2959461,42.7776288 70.4135611,42.8983918 70.531176,43.0191547 C70.805693,43.3004569 71.0801066,43.5817849 71.3544684,43.8633453 C71.4107066,43.9211285 71.4613472,43.9848637 71.5139144,44.0459776 C71.6495671,44.2029765 71.7851809,44.3600401 71.9206784,44.5172973 C72.0692149,44.6889803 72.2173121,44.8606631 72.3656676,45.032501 C72.4156788,45.0904094 72.4685719,45.1468856 72.5158299,45.2071822 C72.7481055,45.5033532 72.9803169,45.7990462 73.2126313,46.0951526 C73.3867929,46.3172097 73.5625706,46.5371621 73.7254745,46.7675707 C73.9746389,47.1191487 74.2235192,47.4704681 74.4722056,47.8221104 C74.6085205,48.0145722 74.7331017,48.212375 74.8584696,48.4122325 C75.0684233,48.7461384 75.2781576,49.0798246 75.488047,49.4132525 C75.5303009,49.480561 75.5671135,49.5518062 75.6062529,49.6209343 C75.7068556,49.7998474 75.8076908,49.9788123 75.9082289,50.1576867 C76.0633142,50.4331386 76.2280909,50.705186 76.3741169,50.9854767 C76.5367234,51.2981399 76.699782,51.6106353 76.8624918,51.9232727 C76.9832406,52.1548044 77.113383,52.3837195 77.2221265,52.6210442 C77.3953494,52.9994067 77.5688952,53.3779632 77.7421182,53.7563258 C77.857673,54.00908 77.9593104,54.2678843 78.0647729,54.5248566 C78.1871203,54.8229088 78.315657,55.1191434 78.4219164,55.4233477 C78.5463582,55.7802211 78.6710713,56.1370817 78.7957714,56.4941103 C78.8360314,56.6093466 78.8630198,56.7305819 78.8965994,56.8478681 C78.9580465,57.0650352 79.0198425,57.2820605 79.0814448,57.4989693 C79.1517222,57.7464885 79.2144689,57.9922072 79.2729106,58.242897 C79.3274492,58.4755108 79.3821297,58.7084734 79.4365519,58.9412809 C79.4597175,59.0403578 79.4876371,59.1395669 79.5062029,59.2395711 C79.5743742,59.61009 79.6424809,59.9805701 79.7110657,60.3509859 C79.7663491,60.6519799 79.8099268,60.9549044 79.8576131,61.2571339 C79.8934863,61.4860023 79.9249664,61.7157464 79.9520542,61.9454877 C80.2413612,61.9851251 80.4483049,62.2371619 80.4555479,62.5302063 C80.4664742,62.9844423 80.4717809,63.4383776 80.4831853,63.8925494 C80.4949471,64.3534392 80.5119005,64.8170969 80.4852803,65.2779495 C80.4598747,65.717913 80.43713,66.1584207 80.3795837,66.5958576 C80.3123909,67.1088769 80.2238852,67.6165602 80.1262843,68.1247545 C80.0697844,68.4193088 80.0022536,68.711014 79.9276181,69.0015262 C79.8539415,69.2875173 79.7760262,69.5754436 79.6734039,69.8525669 C79.4397666,70.4836116 79.1800278,71.1026639 78.9017158,71.7150382 C78.3931661,72.8327196 77.7986012,73.9114606 77.2060024,74.986198 C77.0515217,75.2662599 76.9017934,75.5490895 76.7406102,75.8253877 C76.5808234,76.0998007 76.414515,76.3702952 76.2488651,76.6414489 C75.9184573,77.1827104 75.5811665,77.7194848 75.2347972,78.250892 C75.0818568,78.4853899 74.9189599,78.7136416 74.7505369,78.9369031 C74.5352048,79.2221458 74.322146,79.5081392 74.0984079,79.7867491 C73.890469,80.045939 73.67233,80.2959241 73.4560242,80.5479775 C73.2588527,80.777254 73.0603514,81.0053798 72.8528122,81.2249993 C72.4134941,81.6905388 71.9639624,82.14792 71.5003722,82.5892082 C71.2468795,82.8306058 70.9920201,83.0678426 70.7316079,83.3013035 C70.4800756,83.5274451 70.2238702,83.7480544 69.9680908,83.9692711 C69.5164827,84.3597569 69.0538109,84.7377947 68.591914,85.116298 C68.3391148,85.3234867 68.0901878,85.536078 67.8334259,85.737722 C67.5610115,85.9516678 67.2883388,86.1654584 67.015989,86.379443 C66.84942,86.5104 66.6716711,86.6291029 66.499926,86.7531709 C66.3845461,86.8366704 66.2703663,86.9221214 66.1534502,87.0036433 C65.8845539,87.1905262 65.6180199,87.3804982 65.3432508,87.5590188 C65.0553764,87.7461869 64.7698382,87.9367799 64.4842615,88.1269982 C64.2494774,88.283582 64.0160995,88.4433835 63.7758821,88.5911661 C63.1903113,88.950988 62.6050508,89.3102933 62.0153891,89.6631752 C61.4587216,89.9966866 60.8797047,90.2889984 60.2996815,90.5790358 C59.751733,90.8532808 59.1944028,91.1112549 58.6317595,91.3540847 C58.0365003,91.6105362 57.4369044,91.860603 56.8286949,92.0849299 C56.4671135,92.2182311 56.1058291,92.3516229 55.7442865,92.4848596 C55.6407431,92.5229178 55.5343493,92.5537267 55.4294261,92.5877921 C55.2169696,92.6569031 55.0044872,92.7259108 54.7919143,92.7952155 C54.5461459,92.8751573 54.3007171,92.949415 54.0523188,93.0205703 C53.8220622,93.0861044 53.5920252,93.1518583 53.3620269,93.2175476 C53.2638124,93.2457133 53.1660352,93.276954 53.0669572,93.3018765 C52.7182466,93.3886002 52.3696391,93.4757374 52.0209285,93.5624611 C51.7040033,93.6414795 51.3814182,93.7024206 51.0624193,93.7715805 C50.9383676,93.7987222 50.813627,93.8325684 50.6881068,93.8529396 C50.5366043,93.8772089 50.3852566,93.9016591 50.2336895,93.9258895 C49.8964971,93.9804266 49.5598415,94.0441623 49.2193314,94.0743838 C48.8469098,94.1074015 48.4742945,94.1403029 48.1017177,94.1735788 C47.9785291,94.1843657 47.8534864,94.1850747 47.7299134,94.1907971 C47.5070813,94.2011205 47.2847016,94.2112762 47.0618696,94.2215995 C46.9503761,94.2266708 46.8370955,94.2386654 46.7255425,94.2362301 C46.5329376,94.2306183 46.3403973,94.2254839 46.1476761,94.2205045 C45.8128363,94.2115983 45.480203,94.1864414 45.1458638,94.1623687 C44.8181129,94.1387394 44.4915079,94.1007708 44.1645646,94.0667293 C44.0008279,94.0500766 43.8388542,94.0237617 43.6761952,93.9984411 C43.5072197,93.9717858 43.3354494,93.9519758 43.1673308,93.9186291 C42.859796,93.8574056 42.5523642,93.7965955 42.2462297,93.7273374 C41.9026357,93.6496323 41.5616566,93.56348 41.2200568,93.4783608 C40.6349222,93.3324203 40.05313,93.1717027 39.4798686,92.9837703 C38.8457847,92.7758139 38.2173921,92.5567767 37.5913587,92.3251837 C37.3342936,92.2301317 37.0767536,92.1303122 36.8250454,92.0219571 C36.4825417,91.8748653 36.1390539,91.7313126 35.8036138,91.5685158 C35.4971549,91.4197932 35.1959459,91.2635034 34.8943378,91.1049525 C34.6289422,90.9656996 34.370205,90.818144 34.1100224,90.6683138 C33.9197314,90.5588089 33.7276557,90.4522743 33.5394986,90.3392181 C33.4746703,90.3002653 33.4105271,90.2607575 33.3471985,90.2198936 C33.152835,90.0949352 32.9586008,89.9696151 32.764276,89.8445921 C32.6551169,89.7742571 32.5414853,89.7080016 32.4353006,89.6328626 C32.1618268,89.4383116 31.8879521,89.2445742 31.6145947,89.0498295 C31.3444786,88.8572959 31.0805565,88.6554776 30.8139186,88.4581792 C30.2556301,88.0458289 29.7236003,87.6011849 29.1928378,87.1545781 C28.9475219,86.9481208 28.7182643,86.7210808 28.4830843,86.5028737 C28.2535593,86.2901735 28.032024,86.0681252 27.8082518,85.8492147 C27.5825301,85.6284297 27.3648613,85.4005315 27.1459909,85.172878 C27.0647325,85.0887245 26.9811861,85.0066236 26.9054732,84.9171897 C26.7728565,84.7602572 26.6402397,84.6033248 26.5073647,84.4462371 C26.4060015,84.3259237 26.3083833,84.2078606 26.215525,84.0807056 C26.1227056,83.953486 26.0300671,83.8261114 25.9372476,83.6988918 C25.7167969,83.3962043 25.4883598,83.097594 25.2776932,82.787691 C24.7461872,82.0051919 24.239753,81.208317 23.8045943,80.3677049 C23.3797451,79.547085 22.9982525,78.7050599 22.6651409,77.843067 C22.3338481,76.9855065 22.0527587,76.1067002 21.8389089,75.2126664 C21.7057056,74.6555184 21.5860953,74.0947618 21.502287,73.528098 C21.4372847,73.0901443 21.3721148,72.6517384 21.3071126,72.2137848 C21.2717754,71.9749563 21.2415146,71.7373324 21.2201179,71.4969495 C21.1815359,71.0572944 21.1429151,70.6177038 21.1038163,70.1781775 C21.0943379,70.0694847 21.0772259,69.9585779 21.0750729,69.8495408 C21.0730921,69.7539654 21.0713699,69.658106 21.0693892,69.5625306 L21.0439938,68.2300962 C21.0329441,67.6646153 21.0581584,67.0981626 21.1015352,66.5340985 C21.1724862,65.6145103 21.3016221,64.6979819 21.4782021,63.7927359 C21.5699523,63.3229459 21.673005,62.855553 21.7899048,62.3912952 C21.8365167,62.2068038 21.8825214,62.0222991 21.9378522,61.8399707 C22.0620428,61.4298349 22.186298,61.0197379 22.3108632,60.6095635 C22.3771081,60.3902035 22.4340291,60.1651532 22.5157217,59.9509447 L22.9550212,58.7999145 C23.0627238,58.5178464 23.1622132,58.2305797 23.2859829,57.9548262 C23.5701473,57.3218886 23.8543374,56.6890544 24.1387601,56.056272 C24.1744536,55.9768303 24.2193048,55.9004304 24.2593766,55.8229164 C24.3517826,55.6439703 24.4442916,55.4654377 24.5369558,55.2866469 C24.7207711,54.9315834 24.9044958,54.576817 25.0883112,54.2217535 C25.1926169,54.0200776 25.3155592,53.8268755 25.4306354,53.6314076 C25.6525114,53.2535146 25.8746714,52.8758801 26.0963922,52.4982454 C26.2005662,52.3209217 26.316336,52.1522351 26.4306218,51.9808992 C26.681965,51.604278 26.9331663,51.2273079 27.1846647,50.8504284 C27.2923427,50.6889196 27.4033371,50.5334461 27.5197445,50.3778855 C27.7891642,50.0169593 28.0589975,49.65593 28.3286498,49.2950556 C28.4738392,49.1008082 28.6169748,48.9060298 28.773411,48.7205614 C29.0427789,48.4008207 29.3119273,48.0808602 29.5812952,47.7611194 C29.7136971,47.6040962 29.8457114,47.4472795 29.9779196,47.2901399 C30.0188256,47.2419524 30.0575505,47.1900816 30.1015037,47.1444281 C30.3336295,46.9014409 30.5660781,46.6586477 30.7981651,46.4157251 C31.0706503,46.1307253 31.3430061,45.8460872 31.6154913,45.5610874 C31.7622827,45.4076131 31.9254458,45.2691609 32.0812614,45.1252394 C32.4155267,44.8169859 32.7494691,44.5085383 33.0837344,44.2002848 C33.2178982,44.0763093 33.3509749,43.9554595 33.4913222,43.8388905 C33.8287605,43.558996 34.1659405,43.2789463 34.5029654,42.9991549 C34.652102,42.8755635 34.8009158,42.7517782 34.9501688,42.6279931 C34.9919189,42.5933193 35.0325075,42.5566294 35.0763102,42.5242435 C35.6635294,42.0908882 36.2507099,41.6575974 36.8380456,41.2240484 C37.0477917,41.0692057 37.2670108,40.9294584 37.4844754,40.7857567 C37.8620202,40.5368155 38.2391516,40.2879773 38.6162185,40.0391004 C39.1479245,39.6884814 39.7074829,39.3799958 40.256237,39.0574604 C40.4054027,38.9696544 40.5545166,38.882081 40.7037468,38.7943138 C40.9193663,38.6674315 41.1445884,38.5548435 41.367292,38.4411816 C42.2108723,38.0108823 43.0734539,37.6253073 43.9576456,37.2856728 C44.2456526,37.1747781 44.534632,37.058316 44.8297189,36.9672306 C44.9704463,36.9237441 45.1114966,36.8804516 45.2522886,36.8370039 L46.5330229,36.4417588 C47.0668979,36.2770832 47.6117579,36.1472181 48.158597,36.0336579 C49.0691772,35.844778 49.9917442,35.7200481 50.918493,35.6424749 C51.8209399,35.5671729 52.7264739,35.5335365 53.6314823,35.5750748 C54.5653894,35.6182463 55.4937269,35.7249496 56.4141876,35.8870312 C56.8832599,35.9697377 57.3499872,36.063075 57.8133063,36.1729075 C58.0811012,36.2363538 58.3508489,36.2964036 58.6149397,36.3744976 C59.0064389,36.4902145 59.3983127,36.6058929 59.7898119,36.7216098 C60.0129575,36.7874049 60.239803,36.8451409 60.4578744,36.9266939 C60.8550761,37.0747505 61.2523165,37.2231817 61.6494925,37.3711349 C61.8982133,37.4639855 62.1459022,37.5544583 62.3885803,37.6624848 C62.7748375,37.8344603 63.1612497,38.0066167 63.5474424,38.1785534 L64.02359,38.3904794 C64.2795579,38.5044699 64.5286925,38.6377311 64.7764982,38.7680847 C64.8646349,38.8145066 64.9525181,38.8614096 65.0401355,38.9088019 C65.2078496,38.2575531 65.434151,37.6312185 65.7452396,37.0508717 C66.1302343,36.3327228 66.552655,35.6355678 66.9709234,34.9370603 C67.3896739,34.238403 67.818561,33.5459243 68.1976428,32.8241347 C68.3934982,32.4505562 68.5866066,32.0756787 68.7690002,31.6947146 C68.9444555,31.3281246 69.1173557,30.9603509 69.292427,30.5935301 C69.4673287,30.2259045 69.6404801,29.8579302 69.8092749,29.4869866 C69.9745351,29.1227953 70.113372,28.7438698 70.2628073,28.3712246 C70.562319,27.6246496 70.8156939,26.8548348 71.1266739,26.1137445 C71.3846486,25.5006266 71.667567,24.9007317 71.9182738,24.2839873 C71.8358812,24.3107985 71.7533594,24.3370555 71.6705448,24.361987 C71.1390218,24.5220396 70.6049316,24.675192 70.0803923,24.8724866 C69.8406167,24.9698906 69.6021016,25.0735565 69.3671732,25.1913775 C69.0986969,25.3259695 68.8358667,25.4790852 68.5705061,25.6250215 C68.3057423,25.7708739 68.0446164,25.9279971 67.7745191,26.0526788 C67.4904419,26.1834353 67.2078198,26.3142613 66.9202465,26.4293429 C66.948413,26.4181233 66.9766352,26.4067588 67.0046714,26.3956945 C66.8767657,26.4517569 66.7493661,26.5092552 66.6208563,26.5610185 C66.5206989,26.601262 66.4192676,26.6492196 66.315499,26.6718865 C66.3060639,26.6740345 66.2965533,26.6756451 66.2870796,26.6769766 C66.181078,26.6918741 66.0730267,26.6640412 65.9649137,26.6108717 C65.8712936,26.5790927 65.784288,26.5099416 65.7037677,26.4041216 C65.6236931,26.297143 65.5601993,26.1668729 65.5136027,26.0128558 C65.4167084,25.6893125 65.4284926,25.3563865 65.51924,25.0911389 C65.5959557,24.8673198 65.7154981,24.6754312 65.8630062,24.5959266 C65.9415968,24.553782 66.0234173,24.5243357 66.1051255,24.4946312 C66.2672598,24.4271822 66.4284178,24.3560343 66.5910412,24.2909826 C66.5571147,24.3045188 66.5231135,24.3180654 66.4890001,24.3313539 C66.6516801,24.2667052 66.8125208,24.1954649 66.9722315,24.1178074 C67.1326315,24.039642 67.2956969,23.9712402 67.4535807,23.8832903 C67.773353,23.7039507 68.0916591,23.5179671 68.4121075,23.3412725 C68.7562985,23.1516509 69.1089286,22.9885177 69.4646166,22.846601 C69.8835722,22.6796264 70.3068659,22.5408124 70.7318988,22.404631 C71.1234104,22.2789148 71.5181962,22.1700007 71.9079971,22.0364419 C72.2308655,21.9256536 72.5574696,21.8296751 72.8848114,21.7418497 L72.8912785,21.7246395 C72.9137665,21.6650339 72.9292747,21.5950826 72.9650694,21.5431209 C73.0416636,21.4308678 73.1295777,21.3313046 73.2800029,21.2823084 C73.4003496,21.2433614 73.5476506,21.237835 73.6990564,21.2694006 C73.9235101,21.316384 74.1355288,21.4095037 74.3181082,21.570971 C74.4328065,21.6731959 74.5185473,21.7844739 74.5754432,21.9054879 C74.6393804,22.0191321 74.6582636,22.1338276 74.6843398,22.2459022 C74.7057137,22.3385492 74.6965953,22.4237603 74.6639167,22.4969888 C75.0509729,22.5630635 75.4020187,22.7303759 75.578332,22.9414747 C75.7323461,23.1258796 75.7358469,23.2768356 75.7491836,23.4600858 C75.7528955,23.5125363 75.7571441,23.5653007 75.762,23.6179324 C75.7722249,23.7375393 75.7824498,23.8571462 75.7825711,23.9757631 C75.7834085,24.2055403 75.7606423,24.4325706 75.7726682,24.6638912 C75.81269,25.4412289 75.8629936,26.2193561 75.9035873,26.9967844 C75.9251002,27.403271 75.9258339,27.8076868 75.9382441,28.2133419 C75.9494959,28.5828148 75.9627715,28.9515404 75.990072,29.322411 C76.0302465,29.649941 76.0769868,29.9785871 76.0943098,30.3041756 C76.1114127,30.6265259 76.127979,30.9485625 76.1365984,31.2698743 C76.1409618,31.4237127 75.9475934,31.5664445 75.7347792,31.6376074 C75.5038094,31.7151231 75.2005444,31.7317664 74.898407,31.6839125 C74.5962696,31.6360587 74.3129905,31.5265159 74.1172788,31.3814205 C73.98717,31.2848498 73.9032231,31.1818621 73.8644255,31.0723732 C73.859506,31.0173671 73.8543964,30.9626359 73.8487619,30.9075166 C73.8393439,30.5514524 73.8252191,30.1945664 73.797929,29.8365868 C73.7569339,29.4753687 73.7121975,29.1137107 73.68606,28.7540069 C73.6582535,28.3798528 73.6551356,28.0089988 73.6437597,27.6366081 C73.6201496,26.863929 73.6078341,26.0921236 73.5396748,25.314753 C73.5312091,25.2203246 73.5262305,25.1263643 73.5223272,25.0325376 C73.4458113,25.2369915 73.3651484,25.4394216 73.2768716,25.6381432 C72.9466733,26.3803409 72.6170366,27.1218216 72.330226,27.8863983 C72.0438159,28.6518307 71.7620299,29.4206569 71.446135,30.171449 C71.2882386,30.5462166 71.1200257,30.9161916 70.9425401,31.280507 C70.7626695,31.6485745 70.5936687,32.0224701 70.4145661,32.390999 C70.0544352,33.1323485 69.687605,33.8694089 69.2740924,34.580441 C68.8727071,35.2706377 68.4500863,35.9483385 68.0441892,36.6358242 C67.8380888,36.9847038 67.6259939,37.3309482 67.4343521,37.6881639 C67.3380094,37.8672052 67.2431679,38.0463576 67.1530873,38.2284585 C67.0640175,38.4084424 66.9871288,38.5938121 66.9092557,38.7797327 C66.8682718,38.8931697 66.8271328,39.006865 66.7956033,39.1241372 C66.7323991,39.356749 66.6673138,39.5881425 66.6134088,39.8248478 C66.6127986,39.8275298 66.612173,39.8302017 66.6115321,39.8328631 L66.6115321,39.8328631 Z M75.4628102,73.5746857 C75.6749203,73.1929638 75.8801965,72.8067114 76.0820042,72.4190537 C76.3039377,72.188748 76.4738179,71.8902567 76.6053771,71.6027638 C76.751222,71.2847398 76.8940479,70.9645625 77.0161487,70.636514 C77.0680028,70.4968728 77.1072317,70.3493912 77.1431878,70.202149 C77.1808296,70.1114949 77.2181232,70.0207164 77.2548073,69.9298263 C77.231583,69.9627076 77.2082344,69.9955143 77.1848237,70.0282836 C77.1908864,70.0029934 77.1969116,69.9777655 77.2030858,69.952712 C77.2964124,69.5686837 77.3623082,69.1764036 77.396503,68.7829784 C77.4152364,68.5715096 77.4106521,68.3602844 77.4006559,68.1487772 C77.3954147,68.0432169 77.3923144,67.9373309 77.3925363,67.8314047 C77.3930697,67.6064548 77.3804258,67.3996354 77.3545726,67.17877 C77.3876216,67.0650777 77.4174378,66.9502914 77.4466811,66.8357548 C77.493889,66.6510678 77.5457129,66.4664393 77.5848745,66.2798025 C77.6230579,66.096905 77.656786,65.9143852 77.6889617,65.7305082 C77.724088,65.4626233 77.7594518,65.1942023 77.777436,64.9245869 C77.7995983,64.5908766 77.8130119,64.2579338 77.8219492,63.923574 C77.8375116,63.3369553 77.7913937,62.751796 77.7331776,62.1686158 C77.6663452,61.6892876 77.5996874,61.2098098 77.5128159,60.7337135 C77.4516428,60.397954 77.3902714,60.0618208 77.3288497,59.7259119 C77.2843172,59.4827927 77.2180296,59.2423833 77.1619946,59.0019405 C77.1089829,58.773496 77.0641039,58.5413684 77.0005601,58.3156742 L76.7144525,57.3024993 C76.5834965,56.8386897 76.4131843,56.3870382 76.2544879,55.9320996 C76.1335692,55.63638 76.012837,55.3407724 75.8923167,55.0449527 C75.8018254,54.8238545 75.7026633,54.6078977 75.6033924,54.3904332 C75.5074295,54.1797078 75.4112921,53.9691321 75.3153045,53.758307 C75.2799175,53.6813843 75.2478334,53.6017795 75.2089095,53.5263801 C75.0451424,53.2111933 74.8815252,52.8957571 74.7178705,52.5803833 C74.6084204,52.3694448 74.50307,52.1556241 74.3868313,51.9482429 L73.7967348,50.8967389 C73.690537,50.7072695 73.5853298,50.5200923 73.4701616,50.3362632 C73.2496833,49.9847099 73.0292926,49.6328699 72.8088143,49.2813166 C72.6817905,49.0786549 72.5397644,48.8863242 72.4019996,48.6911237 C72.226545,48.4432408 72.0517747,48.1953448 71.8765073,47.9471501 C71.5649353,47.5491773 71.2530782,47.1506938 70.9412952,46.7525094 C70.8545915,46.6417829 70.7605229,46.5365582 70.668647,46.429936 C70.4509845,46.1775645 70.2335092,45.9248813 70.0160952,45.6726591 C69.9242193,45.5660369 69.8350607,45.4571443 69.7369885,45.3564716 C69.5253494,45.139113 69.3139214,44.921966 69.1025308,44.7047568 C68.9381962,44.5357608 68.7736497,44.3669768 68.609253,44.1979435 C68.4041454,43.9868851 68.183311,43.7875042 67.9651219,43.5904764 C67.7443487,43.3915565 67.5193574,43.1986717 67.2890029,43.0118976 C66.5929744,42.4637798 65.8636768,41.9562531 65.1090395,41.4935729 C64.7387918,41.266439 64.3637121,41.0473471 63.9811636,40.8416703 C63.7902251,40.7389064 63.5986737,40.6377257 63.4052485,40.5400857 C63.2741571,40.4735362 63.143696,40.4031229 63.0094674,40.3433427 C62.4798985,40.1080417 61.9501806,39.8725664 61.4209114,39.6367667 C61.0317533,39.4917724 60.642533,39.3467407 60.2534115,39.2021077 C60.0809441,39.1378482 59.9088377,39.0735509 59.7362707,39.0093164 C59.6323199,38.9707835 59.521921,38.9455153 59.4157147,38.9145362 C58.953862,38.7782135 58.4921079,38.6422895 58.0303539,38.5063655 C57.8839219,38.463095 57.7345475,38.4286624 57.5861224,38.3925094 C57.3117065,38.3257924 57.0368138,38.2609949 56.7603263,38.2032148 C56.273018,38.101657 55.7825676,38.0151807 55.290245,37.9433611 C54.4306483,37.8286168 53.5631002,37.7676396 52.6957481,37.7730876 C51.8765117,37.7790244 51.0586106,37.8361197 50.2444807,37.9283169 C49.4402641,38.0280827 48.6441384,38.1737763 47.8570797,38.3686993 C47.6320032,38.4243668 47.4045317,38.4769832 47.1828869,38.545658 C47.0537621,38.5857556 46.9242763,38.6258909 46.7951514,38.6659885 C46.4098564,38.7854944 46.0248473,38.9050873 45.6394901,39.0245559 C45.2590257,39.1426372 44.8862265,39.278221 44.5147664,39.4219912 C43.9317364,39.6539806 43.3565544,39.9052793 42.7937611,40.1822642 C42.4068121,40.3726422 42.0158573,40.5626498 41.6440528,40.7817274 C41.1547577,41.0703777 40.6652761,41.3589161 40.1760057,41.6476661 C40.072157,41.7088905 39.9648944,41.7663667 39.8643437,41.8332211 C39.6741585,41.9588954 39.4842841,42.0847564 39.2942113,42.2102436 C38.8997605,42.471374 38.5055217,42.7322924 38.1109723,42.9930241 C37.6490641,43.3346147 37.1874045,43.6763546 36.7254963,44.0179452 C36.6093772,44.103954 36.493225,44.1879066 36.382319,44.2800174 C36.1181653,44.4998031 35.8539495,44.7195514 35.589646,44.9395864 C35.3295434,45.1558669 35.0697269,45.3722344 34.8096243,45.5885148 C34.7612006,45.6289939 34.7160773,45.6738319 34.6698758,45.7166645 C34.539326,45.837105 34.4090621,45.9576326 34.2784246,46.0783598 C33.9662107,46.3670124 33.6539091,46.6559517 33.3416577,46.9446666 C33.2118434,47.0644461 33.0908283,47.1890036 32.9687114,47.3168021 C32.6654335,47.6340722 32.3624416,47.9514293 32.0594122,48.2688488 C31.9176676,48.4173503 31.7684047,48.5613345 31.6360361,48.7184394 C31.2188468,49.2141712 30.8014711,49.709791 30.3847423,50.2054601 C30.1085781,50.5754215 29.8324386,50.9454825 29.5564243,51.3151945 C29.4428293,51.4673738 29.3294462,51.6193411 29.2160385,51.7712087 C29.1362824,51.8780484 29.0668591,51.9941512 28.9931921,52.1046497 C28.7491763,52.4700856 28.5054091,52.8356708 28.2616044,53.2013183 C28.1560586,53.3599462 28.0559282,53.5171614 27.9596404,53.681352 C27.7381965,54.0580596 27.516665,54.4350538 27.2950713,54.8120107 C27.1958617,54.9810639 27.0945788,55.147938 27.0044664,55.322118 C26.814161,55.689366 26.6240539,56.0569877 26.4337485,56.4242357 C26.3263837,56.6314913 26.207763,56.8366503 26.1118957,57.0495416 C25.8546449,57.6210956 25.597766,58.1932973 25.3407637,58.7650006 C25.1821009,59.1790914 25.0241471,59.5932689 24.8658827,60.0072597 C24.7961957,60.1898095 24.7263343,60.3725089 24.6563988,60.5549094 C24.6142355,60.6657555 24.5863401,60.7842414 24.5517123,60.8973244 C24.4004648,61.3947791 24.2494667,61.8919594 24.098369,62.3891647 C24.0521624,62.5413627 24.0152821,62.6961949 23.9767607,62.8503805 C23.9081349,63.1263063 23.8416974,63.402953 23.7819885,63.6809276 C23.6660034,64.2197638 23.5670445,64.7622122 23.4855365,65.3074251 C23.4141552,65.8236807 23.3599023,66.3422523 23.3293985,66.8625364 C23.307992,67.2275005 23.2825709,67.5963311 23.2887975,67.9620323 C23.2975417,68.4504935 23.3063106,68.9390544 23.3149049,69.4277649 C23.3169586,69.540319 23.3126503,69.6547351 23.32222,69.7668841 C23.3379322,69.9463595 23.3531473,70.1255363 23.3687608,70.3046131 C23.4029815,70.7007105 23.43729,71.0965212 23.4716606,71.4923693 C23.5545458,72.059827 23.6379417,72.6269977 23.7211256,73.1943804 C23.7506433,73.3943691 23.7917476,73.5930895 23.8319199,73.7912499 C23.9096669,74.1743009 23.9928905,74.5564003 24.0920489,74.9344986 C24.2822001,75.6626254 24.5096031,76.3792812 24.7765266,77.08252 C25.0632307,77.8109653 25.3853226,78.5268195 25.7442867,79.222405 C26.1107094,79.9331629 26.5183084,80.6181776 26.9618585,81.2830489 C27.332599,81.8392634 27.7311787,82.3750421 28.1240005,82.9153368 L28.0355903,82.7936577 C28.2845937,83.0884483 28.5252829,83.3904613 28.7927604,83.6688616 C28.953875,83.8366016 29.1153003,84.0045283 29.276477,84.1723057 C29.4116563,84.3128381 29.5555116,84.4456867 29.6946067,84.5819539 C29.9913482,84.8725924 30.2950259,85.1545017 30.5991249,85.4372582 C30.854358,85.674532 31.126403,85.8929744 31.3931983,86.1169169 C31.6195692,86.2927277 31.8459401,86.4685386 32.0724608,86.6441002 C32.3037011,86.8237702 32.543536,86.9930773 32.7792174,87.1671856 C33.0145882,87.3411073 33.2549382,87.5080088 33.493578,87.6776159 C33.6999772,87.8244571 33.9127963,87.9596286 34.1256484,88.0968562 C34.3483296,88.2402444 34.5680013,88.3887818 34.7973875,88.521011 L35.7242286,89.0550044 C35.972467,89.1982218 36.232576,89.323372 36.4864468,89.4566525 C36.7045467,89.5714943 36.9288299,89.6747787 37.1505532,89.7824644 C37.2164887,89.8107977 37.2821136,89.8389444 37.3480491,89.8672777 C37.8937831,90.1014312 38.448616,90.3221308 39.0104122,90.5151965 C39.3132804,90.619288 39.6153884,90.7239408 39.9195235,90.8231088 C40.0522307,90.8667022 40.1846519,90.9102086 40.3179108,90.9517579 C40.4790602,91.00192 40.6394855,91.0591985 40.8026144,91.1028289 C41.3887367,91.2597724 41.9746677,91.4249159 42.5667495,91.558289 C42.8927133,91.631543 43.2182968,91.7021927 43.54607,91.7669462 C43.7983979,91.8170824 44.053615,91.8541062 44.3083178,91.8931119 C44.7173764,91.9347557 45.1253386,91.9770983 45.5357678,92.0059053 C45.7235347,92.0189463 45.9110689,92.0361746 46.0991396,92.0408285 C46.3524177,92.0471603 46.6058448,92.0536664 46.8593971,92.0600522 C46.9183338,92.0613821 46.9785821,92.0545652 47.0373787,92.0517124 C47.1690458,92.0453844 47.3006005,92.0392434 47.432305,92.0328531 C47.673427,92.0212748 47.9144614,92.0099832 48.1555459,91.9984673 C48.3392903,91.9894915 48.5237126,91.9657353 48.7070371,91.9492951 L49.2666062,91.8987827 C49.5968675,91.8449718 49.9271909,91.7911982 50.2576632,91.7375989 C50.5424938,91.6912779 50.8237932,91.6200112 51.1056697,91.5583397 C51.3739158,91.4995083 51.6409055,91.440516 51.9070157,91.3736983 C52.1902558,91.3025796 52.4756353,91.2377522 52.7563073,91.1571147 C53.1343628,91.0485314 53.5123197,90.9395494 53.8904374,90.8310034 C54.157775,90.7544022 54.4208547,90.6612426 54.6852268,90.574799 C54.9357538,90.4926786 55.1859529,90.4126521 55.4329287,90.3211011 C55.7451907,90.2054817 56.0572417,90.0896506 56.3695037,89.9740313 C56.6350752,89.8674357 56.9005105,89.7605038 57.1660819,89.6539083 C57.4257263,89.5494362 57.6812748,89.434188 57.9384325,89.3228764 C58.181929,89.2172713 58.4207302,89.1018874 58.6608582,88.9886584 C58.8788415,88.8859656 59.0971574,88.7848303 59.3123398,88.6768062 C59.5920049,88.53634 59.8771033,88.4037203 60.1505352,88.2511089 C60.4269183,88.097386 60.7080038,87.9500521 60.9792796,87.7872363 C61.543796,87.4479904 62.1047403,87.1032892 62.6652387,86.7576413 C63.1759028,86.442716 63.6656977,86.0936999 64.1683004,85.7662944 C64.65432,85.449458 65.1232957,85.1077868 65.5927675,84.7668379 C65.857419,84.5588907 66.1267261,84.355862 66.3866616,84.1421114 C66.686618,83.8958144 66.9864246,83.6497669 67.28617,83.4032583 C67.7384103,83.0320164 68.1870274,82.6559673 68.6293761,82.2727579 C68.8768459,82.0582201 69.1210116,81.8410182 69.3645339,81.6220722 C69.5900051,81.4195162 69.8072333,81.2080193 70.026385,80.9989509 C70.2398264,80.7954453 70.4457338,80.5830855 70.6533892,80.3737276 C70.8666298,80.159156 71.0816494,79.94472 71.2831309,79.7187555 C71.6734216,79.2814425 72.0598125,78.840768 72.4292751,78.3853402 C72.6360612,78.1098727 72.8436916,77.8352519 73.0481056,77.5576804 C73.240415,77.2970172 73.4166101,77.0191202 73.5894997,76.7451763 C73.9191756,76.2224002 74.2451855,75.6974215 74.5651574,75.1681359 C74.8807467,74.6461441 75.1666579,74.1076776 75.4628102,73.5746857 Z" id="Color"></path>
        </g>
    </g>
</svg>